<mxfile host="65bd71144e">
    <diagram id="FN1E5qRHC6V0G8FNRSGZ" name="ページ1">
        <mxGraphModel dx="1124" dy="686" grid="1" gridSize="10" guides="1" tooltips="1" connect="1" arrows="1" fold="1" page="1" pageScale="1" pageWidth="827" pageHeight="1169" math="0" shadow="0">
            <root>
                <mxCell id="0"/>
                <mxCell id="1" parent="0"/>
                <mxCell id="23" value="Github Actions" style="fillColor=none;strokeColor=#5A6C86;verticalAlign=top;fontStyle=0;fontColor=#5A6C86;align=center;" vertex="1" parent="1">
                    <mxGeometry x="77.5" y="350" width="170" height="150" as="geometry"/>
                </mxCell>
                <mxCell id="14" value="Github Repository" style="fillColor=none;strokeColor=#5A6C86;verticalAlign=top;fontStyle=0;fontColor=#5A6C86;align=center;" vertex="1" parent="1">
                    <mxGeometry x="77.5" y="40" width="170" height="150" as="geometry"/>
                </mxCell>
                <mxCell id="2" value="AWS Cloud" style="points=[[0,0],[0.25,0],[0.5,0],[0.75,0],[1,0],[1,0.25],[1,0.5],[1,0.75],[1,1],[0.75,1],[0.5,1],[0.25,1],[0,1],[0,0.75],[0,0.5],[0,0.25]];outlineConnect=0;gradientColor=none;html=1;whiteSpace=wrap;fontSize=12;fontStyle=0;container=1;pointerEvents=0;collapsible=0;recursiveResize=0;shape=mxgraph.aws4.group;grIcon=mxgraph.aws4.group_aws_cloud_alt;strokeColor=#232F3E;fillColor=none;verticalAlign=top;align=left;spacingLeft=30;fontColor=#232F3E;dashed=0;" parent="1" vertex="1">
                    <mxGeometry x="510" y="140" width="250" height="280" as="geometry"/>
                </mxCell>
                <mxCell id="30" value="" style="sketch=0;points=[[0,0,0],[0.25,0,0],[0.5,0,0],[0.75,0,0],[1,0,0],[0,1,0],[0.25,1,0],[0.5,1,0],[0.75,1,0],[1,1,0],[0,0.25,0],[0,0.5,0],[0,0.75,0],[1,0.25,0],[1,0.5,0],[1,0.75,0]];outlineConnect=0;fontColor=#232F3E;gradientColor=#60A337;gradientDirection=north;fillColor=#277116;strokeColor=#ffffff;dashed=0;verticalLabelPosition=bottom;verticalAlign=top;align=center;html=1;fontSize=12;fontStyle=0;aspect=fixed;shape=mxgraph.aws4.resourceIcon;resIcon=mxgraph.aws4.s3;" vertex="1" parent="2">
                    <mxGeometry x="130" y="100" width="60" height="60" as="geometry"/>
                </mxCell>
                <mxCell id="35" value="" style="sketch=0;outlineConnect=0;fontColor=#232F3E;gradientColor=none;fillColor=#BF0816;strokeColor=none;dashed=0;verticalLabelPosition=bottom;verticalAlign=top;align=center;html=1;fontSize=12;fontStyle=0;aspect=fixed;pointerEvents=1;shape=mxgraph.aws4.permissions;" vertex="1" parent="2">
                    <mxGeometry x="27.5" y="69.13" width="32.49" height="40.87" as="geometry"/>
                </mxCell>
                <mxCell id="32" value="" style="sketch=0;points=[[0,0,0],[0.25,0,0],[0.5,0,0],[0.75,0,0],[1,0,0],[0,1,0],[0.25,1,0],[0.5,1,0],[0.75,1,0],[1,1,0],[0,0.25,0],[0,0.5,0],[0,0.75,0],[1,0.25,0],[1,0.5,0],[1,0.75,0]];outlineConnect=0;fontColor=#232F3E;gradientColor=#F54749;gradientDirection=north;fillColor=#C7131F;strokeColor=#ffffff;dashed=0;verticalLabelPosition=bottom;verticalAlign=top;align=center;html=1;fontSize=12;fontStyle=0;aspect=fixed;shape=mxgraph.aws4.resourceIcon;resIcon=mxgraph.aws4.identity_and_access_management;" vertex="1" parent="2">
                    <mxGeometry x="40" y="170" width="50" height="50" as="geometry"/>
                </mxCell>
                <mxCell id="37" value="OIDCプロバイダ" style="text;strokeColor=none;align=center;fillColor=none;html=1;verticalAlign=middle;whiteSpace=wrap;rounded=0;" vertex="1" parent="2">
                    <mxGeometry x="17.5" y="230" width="95" height="30" as="geometry"/>
                </mxCell>
                <mxCell id="10" value="" style="shape=image;verticalLabelPosition=bottom;labelBackgroundColor=default;verticalAlign=top;aspect=fixed;imageAspect=0;image=data:image/png,iVBORw0KGgoAAAANSUhEUgAAAgAAAAIACAQAAABecRxxAAAQEElEQVR42u3dbbDmdV3H8c+yC8KGILPiDeLISmphUpk6CqWJlDBDZg92MR0ZBW+mmTS1GbGmGdOpfKLONPZEhfJeO+vgWIal43IcsS0GLZlSxGG9aSVvkkiBFojdHuDKOXsW9gDnOt/f9f++XjxwhoX/9f3h/t+/3//a65yTAAAAAAAAAAAAAAAAAAAAAAAAAAAAAAAAAAAAAAAAAAAAAAAAAAAAAADAlG2oHqDAxmzJlmzJ0Tkyx1YPwyTdklvyzXwr+6oHOZwuATg5T8rpOS1bc0pOysbqcWhhb67Oznw8X6we5J5NPQA/n2fnzJyRk6oHobF/zzvyntxWPcahTDUAD8pz87yc68ZnEN/OxflQ9lePcbDpBWBDnpMX5zdzfPUgcJDP5ILcUD3EctMKwIl5WS7KqdVjwD34Xrbns9VDLDWdADwhr80FOaZ6DLhXt+WFuax6iLtNIwBb84Zc5L195sKd2ZaPVQ9xwPwH4KT8SS5w8zNHbs0z84XqIe4y3wE4Oq/LH/gwD3Nnd56c/6keIslc75zPyuXZnqOqx4D77IQ8LH9TPUQyvyeAY/PWvGJup4f9OTO7qoeY1wA8NR/M46qHgAdkZ55TPUJyRPUA99mGvCH/6PZn7p2VZ1SPMH/vATw4H8ir5zBbcCjl7wPM1yPAY/LJ/Gz1ELBGfpiHZ2/tCPO0l56Wz7n9mZDj6h8C5icAZ+bKPLp6CFhTv1o9wLwE4Lx8KidUDwFr7EnVA8xHAM7Px7K5eghYc0+oHmAeAnBW3ptN1UPADDyseoDx/xTgqdnp0/5M1G05unaA0QPw07kyD68eAmam+A4cOwCPyufzmOohYIaK78CR3wM4Oh9z+8MsjRyAv8hTq0eAaRs3ABflouoRYOpGfQ/g1PxLHlw9BMyc9wAO4ch82O0PszdmAF7v6R/Ww4iPAI/Pl6o/HgHrxCPAQTbkXW5/WB/jBWB7nlU9AnQx2iPAMflyTqkeAtaNR4BlXuX2h/Uz1gng2OzOidVDwDpyAljiNW5/WE8jnQA255t5aPUQsK6cAH7ipW5/WF/jnACOyLV+3g/tOAH82Nluf1hv4wTg5dUDQD+jPAKcmD05qnoIWHceAZIk29z+sP5GCcD26gGgozEeAR6RPXP3g8phLXgESHKu2x8qjBGAc6oHgJ5GeATYmO/7yb805REgT3L7Q40RAnBG9QDQlQBAYyME4MnVA0BX9W8CPig3Z1P1EFCk/ZuAT3T7Q5X6ADy+egDoqz4AW6sHgL7qA/CY6gGgr/oAPKp6AOirPgC+ESiUqQ/AluoBoK/6ADykegDoqz4AfhQ4lKkPgO8FCGXqPwq8b4AZVmdX9szgqtuql0Wp4t/99Tff/uoBVm17drReP7PQ/msBgDICAI0JADQmANCYAEBjAgCNCQA0JgDQmABAYwIAjQkANCYA0JgAQGMCAI0JADQmANCYAEBjAgCNCQA0JgDQmABAYwIAjQkANCYA0JgAQGMCAI0JADQmANCYAEBjAgCNCQA0JgDQmABAYwIAjQkANCYA0JgAQGMCAI0JADQmANCYAEBjG6oHyP7qAVZtV/bM4KrbqpdFqeI7UACgUvEd6BEAGhMAaEwAoDEBgMYEABoTAGhMAKAxAYDGBAAaEwBoTACgMQGAxgQAGhMAaEwAoDEBgMYEABoTAGhMAKCxTdUDzBHfFJTJ8U1BV297drReP7Pgm4ICVQQAGhMAaEwAoDEBgMYEABoTAGhMAKAxAYDGBAAaEwBoTACgMQGAxgQAGhMAaEwAoDEBgMYEABoTAGhMAKAxAYDGBAAaEwBoTACgMQGAxgQAGhMAaEwAoDEBgMYEABoTAGhMAKAxAYDGBAAaEwBoTACgMQGAxgQAGhMAaEwAoDEBgMY2VA+Q/dUDrNqu7JnBVbdVL4tSxXegAECl4jvQIwA0JgDQmABAYwIAjQkANCYA0JgAQGMCAI0JADQmANCYAEBjAgCNCQA0JgDQmABAYwIAjQkANCYA0JgAQGObqgeYI74pKJPjm4Ku3vbsaL1+ZsE3BQWqCAA0JgDQmABAYwIAjQkANCYA0JgAQGMCAI0JADQmANCYAEBjAgCNCQA0JgDQmABAYwIAjQkANCYA0JgAQGMCAI0JADQmANCYAEBjAgCNCQA0JgDQmABAYwIAjQkANCYA0JgAQGMCAI0JADQmANCYAEBjAgCNCQA0JgDQmABAYwIAjW2oHiD7qwdYtV3ZM4OrbqteFqWK70ABgErFd6BHAGhMAKAxAYDGBAAaEwBoTACgMQGAxgQAGhMAaEwAoDEBgMYEABoTAGhMAKAxAYDGBAAaEwBoTACgMQGAxgQAGhMAaEwAoDEBgMYEABoTAGhMAKAxAYDGBAAaEwBoTACgMQGAxgQAGhMAaEwAoDEBgMYEABoTAGhMAKAxAYDGBAAaEwBoTACgMQGAxgQAGhMAaEwAoDEBgMYEABoTAGhMAKAxAYDGBAAaEwBoTACgMQGAxgQAGhMAaEwAoDEBgMYEABoTAGhMAKCxTdUDDOOmfDXX5vr8KLfkpuphGNDr8vTqEdaeANySv88VuSJfrh6EwW0TgGnZn515Xy7LzdWDQJWuAdiXy/OmXF09BtTqGYDP5FX5SvUQUK/fnwJ8Jy/M2W5/SPqdAK7Ii/Kf1UPAKDqdAPbnjTnb7Q9363MCuDOvzKXVQ8BYugRgb7blE9VDwGh6PALcmRe7/WGlDgHYn9/JR6uHgBF1CMA78u7qEWBM0w/AF/L66hFgVFMPwK05P7dVDwGjmnoA/jTXV48A45p2AL6Wt1WPACObdgAudvyHezPlAHwlH68eAcY25QD8WfZVjwBjm24AbsyO6hFgdNP9WoCPrPnz/zNycvWiSu3KnuoRWGvTDcD71/yKr8226kWV2u5MNT1TfQT4Qa6qHgHGN9UA7PQGIBzeVAOwWD0AzIOpBuCL1QPAPJhqAK6rHgDmwTQD8L3cWD0CzINpBuDb1QPAfJhmAH5UPQDMBwGAxuoDsH8G17y9elEwH+oDMIubdXP1omA+TDMAD65eFMyH+gDM4nv2HF+9KJgP9QG4ZQbX3DrAumAO1N8oP5jBNTc3/8p9WKVpBiD5meplwTyoD8B/zeSqZ1QvC+ZBfQBumMlVn129LJgH9QH4xkyu+nSfBYDDqw/AN2dy1aPyG9ULg/HVB+DrM7ruBdULg/HVB+C63DGT6/56HlG9NBhdfQBuz7Uzue6mvKp6aTC6+gAk18zour+bh1QvDcY2QgD+dUbXPS6/V700GNsIAdg1sytfnK3Vi4ORjRCAq7N3Rlc+Jm+vXhyMbIQA3DbD7+L//GyvXh6Ma4QAJDtneO1L84Tq5cGoxgjAJ2d47WPzoRxTvUAY0xgB+OeZ/iCPJ2dhwj8GHR6AMQJwZz410+ufl3dmQ/UiYTxjBCD56Iyvf2HekyOrFwmjGSUAf5cfzvgVLshlvkQYlhslAHvziZm/xnm5Mo+rXiiMZJQAJO9fh9f4xVydF1QvFMYxTgA+NaPvDbTccflw/tYHhOEu4wRgX/5ynV7pvPxb/jgnVC8Y6o0TgOTSGX1rkJU25435Rt6SR1YvGWqNFIAb8pF1fLXj8ob8Ry7PC3Ns9cKhykgByLp/7d7GnJsP5sZcmTflnJwy2H8NmLnRPh/36Zxd+Op7c31uzo9yU/Yf4lef0fwHju3KnuoRSs3m///iO3C0AJyZK6tHgHVUfAeOduj9fP6hegToY7QTQPK0/NOAU8FsOAEc5KosVI8AXYy4156cr/qyHZpwAlhhT95WPQL0MOIJINmca3Jq9RCwDpwADuHWvPyQfxIPrKkxA5BckfdWjwDTN+YjQJKckC/l0dVDwIx5BLgH/50X5c7qIWDaxg1A8rm8tXoEmLZxHwGSZFM+k2dWDwEz5IuB7tXD84U8qnoImBnvAdyr7+b83F49BEzV6AFIPp+X+EwAzMb4AUg+nDdXjwDTNPp7AAemvDQvrR4CZsCbgKuyMR/M+dVDwJoTgFU6MpflvOohYI35U4BVuiPbc3n1ELCmyt/enp8AJP+b38qO6iFgDd1aPcA8BSC5Pb+dv6oeAtbMD6sHmK8AJHfmwrym/uAEa+Jb1QPMWwCS5M/zEp8OZBKuqx5gHgOQvC9n1rcTHrCrqgeYzwAkV+cp2Vk9BDxA5b+H5zUAyfdzTt6SfdVjwP32tXy5eoT5DUByR/4wv5zd1WPA/fT+6gHKP4e0Bh6St+clE1gH3ezN1nyneoh5PgHc5aZcmF/L9dVjwH10Sf3tn2ysHmBNfD2X5P/ytBxZPQis0o3ZVv85wKkEILkji/lAHpknehhgLrw6V1aPkEzhPYDlTs8fZVv1EHAYHx3ld+lUTgAHfDc78umcnFMnlzam45o8P7dVD3GXqd4mp+f384IcVT0GrLA7v5Ibqoc4YKoBSJKTcmEuzNbqMWCJa3LuOLf/tAOQJEfk7Lw4z8tx1YNAkh15Wf2XAC819QDc5eick215brZUD0JjN+biXFI9xMF6BOAuG/OUnJuz8pQcUz0KzezNJXlzvl89xkqdAnDAUfmlnJFfyM/lNG8TMnPX5QN59wif+juUjgG425E5NY/NKTklJ2VLHpqH5vgkm/Og6sGYczfn5nwrX81V2Vn/FX+sjYXsb/3XIB9dYS3N/xcDAfebAEBjAgCNCQA0JgDQmABAYwIAjQkANCYA0JgAzIt9ubZ6BKZHAObD7pyV0/LK3FI9CNMiAOPbn3fl9Hz2x/+7WD0OUyIAo9udZy/Z+XfnLOcA1o4AjOzA3r/y7y1Wj8Y0CMC4lu/9y3/FOYA1IQBjOtTev/LXF6vHZN4JwIjuee9f/k85B/AACcBoDrf3r/xnF6tHZn4JwFhWt/cv/zecA7jfBGAc92XvX/nvLVaPzzwSgFHc971/+b/tHMD9IAAjuL97/8prLFYvhfkiAPUe2N6//ErOAdwnAlBrLfb+lddbrF4W80IAKq3d3r/8qs4BrJIAVFnrvX/ltRerl8j4BKDGbPb+5a/gHMBhCcD6m+Xev/J1FquXy8gEYL3Nfu9f/mrOAdwLAVhP67X3r3zNxeqlMyYBWD/ru/cvf2XnAA5JANZHxd6/8vUXq/8zMBoBWA91e//yKZwDOIgAzFr13r9ylsXqMRiHAMzWGHv/8omcA/gJAZidkfb+lXMtVo/BCARgVsbb+5dP5xxABGA2Rt37V864WD0GzIuF7F/VX9fnWdWjrtqGvCI3r3Jd26qHhUqrCcC+vDM/VT3offTYXCEAcDiHD8A87f1Lre4cIAC0tjC5vX+pw58DBIDWFia49y91uHOAANDawkT3/qXu7RwgALS2MNm9f6l7PgcIAK0tTHrvX+rQ5wABoLWFie/9Sx3qHCAAtLbQYO9f6uBzgADQ2kKLvX+p5ecAAaC1hTZ7/1J3nwMEgNYWGu39Sx04BwgArf11s71/qcfmCgGgtxOrByh1RLZUjwAAAAAAAAAAAADAUv8P0wqgyUvtmykAAAAASUVORK5CYII=;" vertex="1" parent="1">
                    <mxGeometry x="140" y="80" width="45" height="45" as="geometry"/>
                </mxCell>
                <mxCell id="21" value="認証される対象" style="text;strokeColor=none;align=center;fillColor=none;html=1;verticalAlign=middle;whiteSpace=wrap;rounded=0;" vertex="1" parent="1">
                    <mxGeometry x="117.5" y="130" width="90" height="30" as="geometry"/>
                </mxCell>
                <mxCell id="22" value="" style="dashed=0;outlineConnect=0;html=1;align=center;labelPosition=center;verticalLabelPosition=bottom;verticalAlign=top;shape=mxgraph.webicons.github;gradientColor=#DFDEDE" vertex="1" parent="1">
                    <mxGeometry x="77.5" y="40" width="30" height="30" as="geometry"/>
                </mxCell>
                <mxCell id="4" value="" style="dashed=0;outlineConnect=0;html=1;align=center;labelPosition=center;verticalLabelPosition=bottom;verticalAlign=top;shape=mxgraph.webicons.github;gradientColor=#DFDEDE" parent="1" vertex="1">
                    <mxGeometry x="77.5" y="350" width="30" height="30" as="geometry"/>
                </mxCell>
                <mxCell id="25" value="" style="shape=image;verticalLabelPosition=bottom;labelBackgroundColor=default;verticalAlign=top;aspect=fixed;imageAspect=0;image=data:image/png,iVBORw0KGgoAAAANSUhEUgAAAcQAAAFBCAYAAADpIt90AAAKqGlDQ1BJQ0MgUHJvZmlsZQAASImVlwdQk9kWgO//p4eEFnoNvQnSCSAl9NB7sxGSAKGEEAgidmVxBVYUERFQFnQRRMG1ALJWRLGwCCjY3SCLgLouFkRF5f3AEHb3zXtv3sncnC8n555y57+ZEwDISkw+PxWWBiCNlyUI9XajRsfEUnFjAALyQBJIAVUmK5NPDw72B4gs6L/Lh0HEG5E7prOx/v37/yoybE4mCwAoGOF4diYrDeHTyHrL4guyAEDVI3adNVn8We5GWE6AFIiwaJYT5/n9LMfPMRo/5xMe6o6wGgB4EpMpSASAZIjYqdmsRCQOyQdhcx6by0M4B2HntLR0NsJtCBsiPnyEZ+PT4v8SJ/FvMePFMZnMRDHP9zIneA9uJj+Vufb/PI7/LWmpwoUc+sgiJQl8QhGtgpzZ/ZR0PzHz4gODFpjLnvOf4yShT8QCszLdYxeYzfTwE+9NDfRf4ASuF0McJ4sRvsCcTM+wBRakh4pzJQjc6QvMFCzmFaZEiO1JHIY4fm5SeNQCZ3MjAxc4MyXMb9HHXWwXCEPF9XN43m6Leb3Evadl/qVfLkO8Nysp3EfcO3Oxfg6PvhgzM1pcG5vj4bnoEyH252e5iXPxU4PF/pxUb7E9MztMvDcLeSAX9waLzzCZ6Ru8wMAX0EEwsgKRlyeIBuHADAQgjHhncXKyZhtyT+evFXATk7KodOSmcagMHstsCdXS3NIagNl7O/9YvLs/dx8hBfyiLR3JY8dFoG7RxtwGQCsaAHnsok0fhVzJPQCc38ISCrLnbejZNwwgIr8GckAZaAAdYAhMgSWwBY7AFanVFwQhVcaAVYAFkkAaEIA1YD3YAvJBIdgF9oIKUA0OgXpwHJwEreAcuAyugVugFwyAR0AERsBLMAE+gGkIgnAQGaJAypAmpAeZQJYQDXKGPCF/KBSKgeKgRIgHCaH10DaoECqBKqAaqAH6GToLXYZuQH3QA2gIGofeQp9hFEyC5WB1WB9eCtNgOuwHh8Mr4UQ4A86F8+CdcDlcCx+DW+DL8C14ABbBL+FJFEBJoBRQWihTFA3ljgpCxaISUALURlQBqgxVi2pCtaO6UHdQItQr1Cc0Fk1BU9GmaEe0DzoCzUJnoDeii9AV6Hp0C7oTfQc9hJ5Af8OQMWoYE4wDhoGJxiRi1mDyMWWYOswZzFXMAGYE8wGLxSpgDbB2WB9sDDYZuw5bhD2AbcZewvZhh7GTOBxOGWeCc8IF4Zi4LFw+bj/uGO4irh83gvuIl8Br4i3xXvhYPA+/FV+GP4q/gO/Hj+KnCdIEPYIDIYjAJqwlFBMOE9oJtwkjhGmiDNGA6EQMJyYTtxDLiU3Eq8THxHcSEhLaEvYSIRJcic0S5RInJK5LDEl8IsmSjEnupBUkIWkn6QjpEukB6R2ZTNYnu5JjyVnkneQG8hXyU/JHSYqkmSRDki25SbJSskWyX/K1FEFKT4outUoqV6pM6pTUbalX0gRpfWl3aab0RulK6bPS96QnZSgyFjJBMmkyRTJHZW7IjMniZPVlPWXZsnmyh2SvyA5TUBQdijuFRdlGOUy5ShmRw8oZyDHkkuUK5Y7L9chNyMvKW8tHyufIV8qflxcpoBT0FRgKqQrFCicVBhU+K6or0hU5ijsUmxT7FaeUVJVclThKBUrNSgNKn5Wpyp7KKcq7lVuVn6igVYxVQlTWqBxUuarySlVO1VGVpVqgelL1oRqsZqwWqrZO7ZBat9qkuoa6tzpffb/6FfVXGgoarhrJGqUaFzTGNSmazppczVLNi5ovqPJUOjWVWk7tpE5oqWn5aAm1arR6tKa1DbQjtLdqN2s/0SHq0HQSdEp1OnQmdDV1A3TX6zbqPtQj6NH0kvT26XXpTekb6Efpb9dv1R8zUDJgGOQaNBo8NiQbuhhmGNYa3jXCGtGMUowOGPUaw8Y2xknGlca3TWATWxOuyQGTviWYJfZLeEtql9wzJZnSTbNNG02HzBTM/M22mrWavV6quzR26e6lXUu/mduYp5ofNn9kIWvha7HVot3iraWxJcuy0vKuFdnKy2qTVZvVG2sTa471Qev7NhSbAJvtNh02X23tbAW2Tbbjdrp2cXZVdvdocrRgWhHtuj3G3s1+k/05+08Otg5ZDicd/nQ0dUxxPOo4tsxgGWfZ4WXDTtpOTKcaJ5Ez1TnO+UdnkYuWC9Ol1uWZq44r27XOdZRuRE+mH6O/djN3E7idcZtyd3Df4H7JA+Xh7VHg0eMp6xnhWeH51EvbK9Gr0WvC28Z7nfclH4yPn89un3sMdQaL0cCY8LXz3eDb6UfyC/Or8Hvmb+wv8G8PgAN8A/YEPA7UC+QFtgaBIEbQnqAnwQbBGcG/hGBDgkMqQ56HWoSuD+0Ko4StDjsa9iHcLbw4/FGEYYQwoiNSKnJFZEPkVJRHVEmUKHpp9IboWzEqMdyYtlhcbGRsXezkcs/le5ePrLBZkb9icKXBypyVN1aprEpddX611Grm6lNxmLiouKNxX5hBzFrmZDwjvip+guXO2sd6yXZll7LHOU6cEs5oglNCScJYolPinsTxJJeksqRXXHduBfdNsk9ydfJUSlDKkZSZ1KjU5jR8WlzaWZ4sL4XXma6RnpPexzfh5/NFGQ4ZezMmBH6Cukwoc2VmW5YcMiB1Cw2F3wmHsp2zK7M/rolccypHJoeX073WeO2OtaO5Xrk/rUOvY63rWK+1fsv6oQ30DTUboY3xGzs26WzK2zSy2Xtz/RbilpQtv24131qy9f22qG3teep5m/OGv/P+rjFfMl+Qf2+74/bq79Hfc7/v2WG1Y/+ObwXsgpuF5oVlhV+KWEU3f7D4ofyHmZ0JO3uKbYsP7sLu4u0a3O2yu75EpiS3ZHhPwJ6WUmppQen7vav33iizLqveR9wn3Ccq9y9v26+7f9f+LxVJFQOVbpXNVWpVO6qmDrAP9B90PdhUrV5dWP35R+6P92u8a1pq9WvLDmEPZR96fjjycNdPtJ8a6lTqCuu+HuEdEdWH1nc22DU0HFU7WtwINwobx4+tONZ73ON4W5NpU02zQnPhCXBCeOLFz3E/D570O9lxinaq6bTe6aozlDMFLVDL2paJ1qRWUVtMW99Z37Md7Y7tZ34x++XIOa1zleflzxdfIF7IuzBzMffi5CX+pVeXEy8Pd6zueHQl+srdzpDOnqt+V69f87p2pYvedfG60/VzNxxunL1Ju9l6y/ZWS7dN95lfbX4902Pb03Lb7nZbr31ve9+yvgv9Lv2X73jcuXaXcffWQOBA32DE4P17K+6J7rPvjz1IffDmYfbD6UebH2MeFzyRflL2VO1p7W9GvzWLbEXnhzyGup+FPXs0zBp++Xvm719G8p6Tn5eNao42jFmOnRv3Gu99sfzFyEv+y+lX+X/I/FH12vD16T9d/+yeiJ4YeSN4M/O26J3yuyPvrd93TAZPPv2Q9mF6quCj8sf6T7RPXZ+jPo9Or/mC+1L+1ehr+ze/b49n0mZm+EwBc24UQKYDACckAPD2CADkGAAovQAQl8/P1XMCzf8XmCPwn3h+9p4TWwAaXAGYHb8CLgFQtRmZQZDP0ogORnS4K4CtrMRrYQaem9dnxdAcAKM5Eikqgn/K/Cz/l7r/qYE46t/0vwC/YwJKGsuCcAAAAFZlWElmTU0AKgAAAAgAAYdpAAQAAAABAAAAGgAAAAAAA5KGAAcAAAASAAAARKACAAQAAAABAAABxKADAAQAAAABAAABQQAAAABBU0NJSQAAAFNjcmVlbnNob3SNLrzkAAAB1mlUWHRYTUw6Y29tLmFkb2JlLnhtcAAAAAAAPHg6eG1wbWV0YSB4bWxuczp4PSJhZG9iZTpuczptZXRhLyIgeDp4bXB0az0iWE1QIENvcmUgNi4wLjAiPgogICA8cmRmOlJERiB4bWxuczpyZGY9Imh0dHA6Ly93d3cudzMub3JnLzE5OTkvMDIvMjItcmRmLXN5bnRheC1ucyMiPgogICAgICA8cmRmOkRlc2NyaXB0aW9uIHJkZjphYm91dD0iIgogICAgICAgICAgICB4bWxuczpleGlmPSJodHRwOi8vbnMuYWRvYmUuY29tL2V4aWYvMS4wLyI+CiAgICAgICAgIDxleGlmOlBpeGVsWURpbWVuc2lvbj4zMjE8L2V4aWY6UGl4ZWxZRGltZW5zaW9uPgogICAgICAgICA8ZXhpZjpQaXhlbFhEaW1lbnNpb24+NDUyPC9leGlmOlBpeGVsWERpbWVuc2lvbj4KICAgICAgICAgPGV4aWY6VXNlckNvbW1lbnQ+U2NyZWVuc2hvdDwvZXhpZjpVc2VyQ29tbWVudD4KICAgICAgPC9yZGY6RGVzY3JpcHRpb24+CiAgIDwvcmRmOlJERj4KPC94OnhtcG1ldGE+CkCDzHcAAEAASURBVHgB7L1nc2NXmib4ABe48J7eM71XqiSlVF5lu6qmu6drdnY/zpf9RxOxH/bLRmzEzEbvbO9ET0R3dbdKJZVUKrlSZiqVSk8mvQcJwnvced7LpMTMJIkLgAYkz5GQJIBrznnO5XnP657XZrBBNYWAQkAhoBBQCJxwBOwnfPxq+AoBhYBCQCGgEDARUAJRPQgKAYWAQkAhoBAgAkogqsdAIaAQUAgoBBQCREAJRPUYKAQUAgoBhYBCgAgogageA4WAQkAhoBBQCBABJRDVY6AQUAgoBBQCCgEioASiegwUAgoBhYBCQCFABJRAVI+BQkAhoBBQCCgEiIASiOoxUAgoBBQCCgGFABFwKBTaCwEhDqrWaiiXayhVKihVgYrNhUrNzhd/rxkQbiH+MN9vxzNk45Ds3OrY+YuNLwd/d/CNw16Do1Yw3+tODS6nAw5+aZeDVFMIKAQUAiccASUQD/kBqFKybbxEyNlQqFSRzhYxH09jbjmJufUyEs5TSJTcSOQMJPNAvgzk+ErlNgTji0MQQehyAh6+3HyFPEDEa0PUlUewMIFuXxUDXWEM90URDbjh5UEaz9FsNQpHAw7NTkGqhOSLuKr3CgGFwPFGwKa4TA9vgitVA0trFHxrBUwlgIVCEEs5J1bSVWTzFeSLZQq/Gip2H8o1DWVqi/LiaaASiXIF2I6IVkSZaIiUa+ZP0RCpDEK3V+GoZuHm726XA16PC2GvhqjPhr6ggT73Ogb9FQz3BuF1uUzBeHjoqDsrBBQCCoGDRUBpiAeId5k2z3SuiNVMBSt5DasFHXNxA7NrNswngZWiAcpGpAoaDApAA66meidCskqBKa/nm8a3wec+Eg0y4DbQ5efLRcHoB4ZWga6QgU5vGTE9hw6qmB6qnEprfA469UYhoBA4ZggoDXGfJ1TMocVSBcWqRpNnBZNLKdyfLeD+qo7JTATrOTGTGqbGV4PNNJtu5xfcr26KNinWUdPnCPoYqU26nDYMRGw4G8njQiCOSyMx9MW88IhmSQHq4MF2scuqphBQCCgEjhECSiDu42TWKNmSmQIeTCzhbiKCRwkftcEyhWANmZId+YqTgTEiBPexE01cWmSdCD6fs8JXmdqiE6PhCq50ZHGtX0dv1A2fx93EldUpCgGFgEKgfRFQAnGP50aiRIv0+y0mS5hO2jEer+EhHYRP0wHMZ71IMyhGfIBHqdHdiKi7iJFQAWe7NJzqsOFUxMBQzImQT4cuDkrVFAIKAYXAEUdACcQ9mkAxc5YZIZorG1hOVfHFRBYfTeu4u+ShRrh9NOge3frALiNGUo1uyAFfGq91JvD2xQDO9HgRC7oYqGPnd8qMemCToW6kEFAI7DkCSiDuEaRFhnyOzcTxyZwbny/4aRqtYi1PsyhNo5I/eFyaiDyXo2qaU2N+O650FvFmfxFvnA5QMOqMTJXAHdUUAgoBhcDRQ0DZulqYs5oZMFPCDE2j95dtuDPl4k8HppI25EqObaI8W7hZm5wq1t5CRTNfqRKQKdSwkjUwnbfhak8RZ2M1RqV6VcpGm8yX6oZCQCFgHQGlIVrH6rkjS5JCUahibrWIz2Y0fDil4/GyAWZVkEnGtm1+4HMXOCZvJELVqRmI+YDXerP44VARlwcD6Aw64XNpKlXjmMyzGoZC4CQgoARig7MsGpJohguJIr6cKeKdJxSEcQdWc3YUyB6zXxGjpneO/5g/TXG7EZlje/bJi8MgwRs/kqO/PUM+2jjrxaNbey9CUdI1fM4qevw0n3an8PYFL14ZCdC8qqkUjdbgVWcrBBQCB4SAMpk2AHSN9DAlRpB+PZPBzVkDNxd0PKCJNFmw75t5VMQZZQo8OgUO8/T9OtP1q2twVjNw65rps9uaEyhRriKw88x9LMOLsruDjDdAluZNMsKhSHablxP2GwBhm0PNgCIy6Kwz1zJfdqFQ9CANJ5ZoTn29r4AO+hZdOgegmkJAIaAQaGMElEC0ODnVapU8ogam1ip4534en047mFjvZwoFVaM9aqJp6ZwRN02Qur1I7cpGoeeA36NtcJF6mf7gMeAvF+CtJSkgnUx50Bjd+W0gi0kOzr6mcyVkmVBYIoep8J+u8rWWYV4k+VCzlIolcsCJcCxUnSiRFUeEpAi2VpsQEEymQ0hMAPPpCqqFIl4ZtDF3UaNQFxNqq3dQ5ysEFAIKgf1BQJlMLeAqQiadyeGzaQP/7a4bT1ZqZipFxaRXs3ABC4eInJB0vh4yq52JlTDqWsBo1I6hngi6on5TG5SsBkmaZ9wqbEbVrFKxnYARuSZ9NgwNNbvDNOOa3KeUeiIo51ZSmFhMYWzVhqdky5nLhygoN6pnWOiqpUOkry4H6d/8Nfz6XBE/P2fDaaZo6GJbVU0hoBBQCLQhAkog1pmUYqmMOBMJP5zU8NGUE3fmHcjQ9Cgk2620Tb9bRwDo9xUw4E2zAkUQvREXOn01hLUsq1TYEPQJKwyrUQi3WotNhGRJqmkw8ieZKSHByNAETZzxvBPzqzlMr5JMYF3DXM5Pf2jrZmAR8qLxDkcqeK2/jLdP1XCxz41YQJlPW5xKdbpCQCGwDwgok+kOoIr5sEipN58o4/ZUCf/6yGemVFDBaqlpLK8kdGghmj47gw6c6dRwjqwvZwNljPYZCJFc26GRNw3hlu6z3clCzi01EF0hB1MjGBb6rEkO5dJaDU8Wq/SJGniUJNNOqoY40ylSRadZVaMZdh3RVMUsO8ago3TBQKWcY1BPEVcGbIj4ZIyqKQQUAgqB9kFAaYjbzIUIwzLNi6IxffS0iv9xz4H5lMbcwuZ5R0UQSnqCl0Ex50NJvDZQwY1TfvREPPC77WZpJvEHSrHeg64qIZqjlKKSVJI8mXYyrLpxfy7HwCHg5qKf5ag2gnKEd1WwaaY57AaCrip+OJzDz88C3zsfovZoM8fbzPXUOQoBhYBCYK8RUBriNogWqBnOUTN855GBD586MLPuMDWdZlMqxO/XR7qz8x1lXBtwY7TDjaGwHT1hnWWVSHlmmkNbN4luMxRLH4kAdlI4Oenf87oM1kik4HZ6MBAz8J1R4N5cHvcWgMerHkar2pqKUhVhus6yVp/PuRiIVOaY1818xY6A0hQtTZI6SCGgENh3BJRAfAFi8RkuUBj+eWJDGD5kWgXdbg3n7236z4KeGvqDVVyJVfEdmkSvD9FcGHQzOrQ9BYEIRwcjYrpCLqZLABd6qhgN2DgGMtDMVzC+XMFixo50qfFajTUSFiykXfjLHDVDIwvDXsDVfiDid5rBQi9MhXqrEFAIKAQOFAFlMt0Ct5gO5xmB+elkGf/1bgAzCQdNiE0IQ0pDp72G7qAN1/qq+JszWZzqZjAJBaGTwkY0xoM2i24ZZkO/ioVUzKl5OgMXSUbwwcOkGVz09WoUZSldJekaDV2RBOE0H7scNfziVBq/uKDhBnlQvbr9yGDS4HDV4QoBhcARQUBpiM8mSvIMs7mCGU36b4+cmEsKX2fjiz0VLAT0Cl7pzuLGqI5XB92MsvTRT+g4kikHoumKENfY/8EO4OdXIxgiofftmQQ+mmVJq7STwUeNPe1Vaor5sobP5rzQHBUE3Dmc7/UgIBWIVVMIKAQUAoeEgFqBCLwU8l1n0v1t5hn+iakV92gmbZSGTQSHMMr0Bsu41FnC94eBV4fsGO6Q6vJHH2Zhw/GQCGC0y4mo145efwYebxW35lnzcVUz6zw2UtVDtMrFjM7zbQh7SsyzLOJ0p2He45D+FtRtFQIKgROOwNFfqVucQFmYS6UqpslA8/dMun+4JJUqGruoaIVOxsREfAZ+PFzEv7vAxPreMANUHMcyilJyIy8N6xjoKGAkWsU/PdLwYKFGRhyJwpWtgfU2m3LinTE7unxZatY1ap8OZTq1Dp86UiGgENhDBE68QBTez7vkJv096djGlmNMOfiWBs0qzl7mmQ+FDfzNxQJeH3BgqMNDmrLjKQwFE9kAODQ7ghz4m6M2hLyks9OSuDmnYy4baMinKJRxq1k7fvfEAxuZbX5LcnCPW6dWfXhRt1bnXR2nEFAIHC8ETrRAlLy75WQJN2cMk5tUmFsaMfvJmu1nsOXFbgPfH6nix6dpSgwz8f2EEFk7HA50B5iiwXQNgxsJj17F57M5zKbdKFWtCTTJayxWbDS7OvH5DDXESBWvDIDEBcfrD02NRiGgEGh/BE6sQJTKFal81SzhdItVK4Sou9YAUbcpDKkZnqXf62dna/jNBRtJuN0sg2RNELT/o2GthxItGyC13HfPR6gxZpm/WMA74xqLBjPYxqJQlPxOqSP5cNmOf3lsRweFrMdZO5JBSNZQU0cpBBQC7YjAiRWIhSJ5O+Ml/BvrGT5YYXX7BoShTKRohiIM/5erNbzGag4h70YxXDEnnrQmY3bRiXq+z0vtWHDIMlqXJOhrLM9hsYkvdyUD3Jqu4VI0B4+NATzd1s+3eBt1mEJAIaAQ2BGBEysQZ1J2/GVWw2MKQ6lnaLXJ4i8+QzGTimYowrAnKJGk1q9h9V5H6TjZB/jdGkY7XfjpeZaXqlWYjpHBQpY1GWvWsGEJR8QpFD+a0Ey2nN5wySQw2Frv8ShhovqqEFAIHC0ETpxAFJ9VqVLB/SU7Ppp2Y411AiWww0qTRV+iSSWARnyGYiYVzbAVYSim2zIT3wsVgz81VBilKUTa0k8RvpLELxWTdFsVulYzybnbWUD4XBqujwRZoDiBQj6H92fdTGlhwSqLGIvv8dYCaeOiZbzSV0a3+GQFBNUUAgoBhcA+I3DiBGKZwnBsJo6vpl14vBxgvqH1xVbyDCW1QqJJf8QAGvEZtsI4I8w4QgYwuZLHVzMljOfCWMzqZm1CIQUg1zcJscmDGrbhlDeB85EsLo52w+91tX06x9WhABy6DykWL749AyyTINxKE3+i5IDep+b+3qQDv7lIGrn2ZLmzMhx1jEJAIXCEEDhRAtEUQFxsP5l1sZST0wzksErYLdqaJN3/iHmGrw86KKQcZgCNfN5MW88KL2geXy/aaLbVMRW3I160I8ngkgLzIEWjEiusm8JgMmHgse7EXb8XZ1M2XO7K4XS0hs6wb0/qJDbT/3rnCDPP6S4DvzhXofbL3E5uPCRwxgrecsxMwkYKPQNXOvPwM5rVy1QM1RQCCgGFwH4icKIEYrHMNItUFZ8tBDCVtF7KSISe0LFdJgPNXzPpfijmaTq1QkyhqXwFjxYKeO9RAX+e9WEu5TJrDm5ONA8xW42k4ll5FYB5+HE/buDWCnCjL4fvD1VwddSLGIsJM8izLQVjyG3gu0OGWVtxhT7bcQp9qY9opSWywKPFGu7Pl9DB2Jphl26akK2cq45RCCgEFALNIHCiBOICcw6/eJrHbMJHNhqHpQRyUQCFqFu4Sb83DJOBRpLum2kiDPMsLfXJ4yTef1LFXxYDLInkoO9wZ87UTeEo95MSSqsUFB9OejG2DrzG1w9HSrhETSxAM6qUkWpWY21mPPXOEd+qaIrfH8yhWGDB4YwbqznNss82U7Jzw+BFT9RulqKSKhyqKQQUAgqB/UKguZV9v3qzj9cVvtLpJBfYGR0JBnlYDaQR2dfF8kdvClE3uUlboWNLsnTGAyaufzhhwxfzbsTzTgbQWF/kRaCK8Fyvkmt1lbl7NP8up+143FXB9b4seUY9jM5snymVkYmQ7o/ouN5fwqPlHANmOG7mKFppkrD/eIXjWyrhaleNJalIBk6GHNUUAgoBhcB+INA+q+d+jO7ZNat0SqVodxyPA3eXPIyAtH4zqWd4ra9GYciqFULU3aQKJtU0lpIVfPCkhNvzHizmWqNikcCTSQrFBVblGF+uYSVVwI2yjnNddpJlMxqVEUBaG0RnClw+j86iyOR5HcljlZuAZMFpCvZ6syCbljWmYYwtV/kqI+wnJV7jzHr1bqO+VwgoBBQCJgInYrtdZILbg4klPJpax3puI2DFyvyLPBlgcd+/PZtlqkW1pfSKfKHIwBkKxJkgc/PcVm5v6RjJ3Ztk3cb/fj+A//NT/rxTxlw8h1LZorPO0l1aPygWdOJ758Ms8+RiqgpTSixeUsjCJ5IefLHEVI7KiXhcLSKjDlMIKAT2GoEToSEWmN/31VoE4wzssBLlKCBrthr6fBlc6ajiVJfX9IW1Av7T5RLuzJaZk+diwV2r4qD+HcXHKL7FTMmGp9SAC/S7za478Cp9ntf6HSZ7jE18i/Uvta9HCKVdkErxG71ZrKzX8IeMj7mW9XslZuKljI20bgZWkgXypjpZKupEPLb7Oh/q4goBhcDLCBz7laXM/IX1HKM6131YyNVfgDchkhzA851lvNpnmJXudcmOb6FNrDFqctlG9hZGt7ZwnZ1OFcGRYTTqGFM35tadWFgrYI3jzoOC3V+hb9F+6IJEML3cXTOjTm8uAGn2V3yiuzXBSsY1m6hifDGHkJtBNkog7gaZ+k4hoBBoEoHWVvkmb3qQp6Uk8X0xhdm1slnE1sq9NRsrOOgGqy64cX3Qa1aMt3LebscsFv2YzYUaCqLZ7Xo7fScacJ7a4l2SDvzDfR/+84ekQnucxtxqjp9XIeWuDqvZbXZ0RwO40B/A5R6herPWFxH26VwNnzNCeC5B56lqCgGFgEJgHxA49hriarqK+3MFaolekxLNCoY+ZxnnwxkGgrgRCZKNZg+CUySydTVvWO6DlX7udEyNBtIizbKSoiHFjgsFL6nqcni1dxWvjfrQSfobp/Pgp14CbKSOYl+wgreHslikbzBhMeI0V3Hg7loIN/IqQX+neVefKwQUAq0hcPCrYmv9behs0T9WKIjux3VkqTVZabJohz0GXuuvYDBsN8mlrZxX7xiJChUGGtF26jWRvy5mJogyJ0EzVs7Z7ppijpTX3YJOM2UZi+tlJCtVXO4tYzBqIOwTth1ruGx3/WY/i9CX+Pog8KcZG2aTxIXY1IOlTI7T2YwX86kKI4aLpM2TIsIH3/dmx6zOUwgoBNofgWNtMq2SJXu14MJEJswIRWu5b+Iq7Aw6cOOUHz2hvdNGZMG3aq0UztSeQBXd/irLTNVMTtNW1/41aomfL0Xxf9/y4P+7U8PtqRxTGmr0aRo0o9YodOuJpL17mL2U9gNdIZzutKMzUDMp6updXVIwhPpNImhnllMMTLLIFl7vwup7hYBCQCHwDIFjqyFWucgvMoltjnRnybyPJYisaROdAZgLdU+UOW+uw9kvuOxlXAquYjhKDU/z4+NpL2ZIKpBiZY5mmxAAFCos3Mu8vk+mnaSL03CHNHBvDuRxpauKoJ+8qAfEBCOE6GbQUjCBcb+N+ZlhMKll16GJuBaZPbtWwRNG7I70GtTedz1FfakQUAgoBBpC4PgKRJoK51YLmFujICh7uZhaE4h9/gLORQxqZmRFYarAYTQHqeI6XRnSxbnQGWOivR+4M1cmY0vVrIZRYj6eVW1za/9FoIgJdTmtcZMgVe2Z+M4qFEvJGi5059Ef1Zkj6GiafGDrver9LhrvuU4bHlEof7FE0zAVPitK6mJOx1NuDqzWWKzXD/W9QkAhoBDYROD4CkSurtOsEjHP6hBWhYeIzEFvGmcDFeh21l2qo7VsgrgfP6UvAVYiPjcQwJneKq52ZvH+wyLenwmZeXmSvmF1XNv1T0i2p5gKMp904easHT8fWcdPLvhwccALN+3GIrBaKW213T23fibXHumNYJRz5BuzkeOVdSktWG3jjNadIbmCaPxyuOCkmkJAIaAQ2AsEjrFAtGO+GMSKlByysGxKMI2Y8Qa6ghhl7qEub9qgyYIvJNlne/wIksD7ymARn84aFGI6pinQrBbe3Wko4oqLZx34/UQIT9IOfGe+jB8O5THEEhNCGL6fzcFaiZ1+gyZqwxSIVkzCEjW7wsjhOJP0A7rr0HMr9xMfdW2FgELgYBE4lgJRAkQKtA0usdgu89MtaVIuItFF/2FvhNRiNFE2y1m6H9Mn2lSQpkwffZqdLFAc8mnoChq4w6LCT9ccFGiaaQq1YnJ8sX+iZUq9wvm0jhSFzRrz/dbSNlztzdOMWqZgdHOjoO1LRKeMK+ou4XQwj4llD1Ko/zgySJb5pBXMrqRYFiqoBOKLE6reKwQUAk0jUH8FavrSh3eiJJ+nGZK4knGSDUWz5JtyaQbOxMro9DqZK9eesEilhxAJrl/32jDKvl4Il/D+BPDlvM3UmvIMmqnUmvN7ijDNUJt+suxgcV4v/ZUp1jIs4ocXNHQHJYmeKSi8v2jSe9nCOgViII1PWASYWYqWLl0gwcDUYhqnOt3ojPgsnaMOUggoBBQC9RCwtgLVu0qbfV9mZYn5eBrZfJApBdZMny57EadcSwg7GNqJcJuN6NvuiFYl1twOP82bI370RStmrcYPH2VxdzXIklJeSxrxt1f89jcRihW+siWNuZt+rBQMcsA68PZoAa8N2KkterhZ2FuJGPLpON0boB+RIaOJb/uy229SFmo+oyFDP6pqCgGFgEJgrxA4lgKxVK5hjrlqhaKHgRfW/GAuJ7UuFqINeo7GIiuCSRLrKU8QdDoRcrkxtFDB18sFjCVc5P+01eUJ3ekhEsGYLTtRTNGESpNzrqhhlr9fG2A0KsnOO3026HuU8yBE3R0sfxH128Fce0uluUqGA8vlMHI1a3O70zjV5woBhYBCYCsCx1IglhmuOL9eYgFda8nbIgJlYR7qidBXt3elmbYCvV+/CwVbX4eDVeW99PklcYp+xd9P6qwfWEOC0ZiSe9iMb1H6K/46CXT5fFrHOAN4xlYN/OJ0kcV+NfRGNWqqG9GorYxNo3/SQ3Nsd4DMOWQIslKrsmI4EReBSPYa1RQCCgGFwF4hcCwFYtXGYBrnKCp2a5nbwgzjdzNQJeZnMdujoSG++AAI36oQZ7/NqM0L/TV88iSNjyZsuL0UMiNRmxWKm/dJUrjeItXadMKN77Ou428v5THIgBuvy5pJevM62/0U+rhOEYisk7hIKjcqqLs2yaUUnlZJ1VBNIaAQUAjsFQLHUyAadqzTXFq2kKgn4k9MdREGqriddibj7xW0B3sdGYekikS4B/DpVbBqIDqYT3lqPoevll3kDNXMckvNCkZJ70gz6KZQtuNjaJB0jb+5WGDKhJObiNYo7ng1RLCKAK9rxX8rmquUhMoVqyjTnyjpG3sd7HOws6fuphBQCLQDAsdSIMrinWBlCdEk6jZKEj9dUbQ4HllhuHWMIhhdFIxne33oDxdwrTuHf51g8v2MgacrrA1ZIMsLK2FY2Ctsvaz5uwhTBnhick3DWp4aqTcHD32vp8lN2grRtl0Eoi0BHzV7IMSXjGLnJn0X7TBLdoEif0r0ra3OOTtfTX2jEFAIKAQ2EDiWAlG0lyR9X6JJ1Guy9PpY+zDqNZh7eETVwx0G6Xbp6KcG9x+DdgrGAj6fKOLDKQ/ZexxmWahmhKLcijSxFEZ2vPvUC1KgYiBWM7VriYBtpmk0mYYDHjPX0lT16tlMzZsw15QCkeUuyTlLQdrkvZvprzpHIaAQOJ4IHEuByPWaATWkApNf6jbGoVbX4C8XYTd6efTxgUQYbnTKeMpEOPsYicqCvP3RGr5cqOLuIiNHmeYg5aUabSKvZLMxuWbHg7kcXokVMdIdYnCMNZ/ti/cT7VLyK/0e0fTq+xDlfNFWc6ynlckZiFCYHlVT94tYqPcKAYXA4SFwfFb/LRiKBiMmNSsakDBi6rUMvNUkbEb3lqscr1/DZLoJMJpzJEr2GaZaRsl4c2uqZFa9SBUdDTPdCLZpameTq1U8mC8xQb5GgdgcZsIKJH5It7sxDbNAaZ4vsnyVJY2yub6psxQCCoGTg8CxFIhVrpApRkVaDSARn5vU6DtmFtOXnmKp3iGC59VBMOeygjdiSXKYevHxnB+JjPhcNwizXzpxlw9Wij48yvrwRrX5R8kkG+AcMIOkoValCUBSbCxPdENXVwcrBBQCJw2BBpegowGPKAzWtQYyv7C6g0RoNqafHA0sXuylCB/hbY35NVweCsIXZABOTwl/eZrDgxU3lnPuBrCjr5ZBOtPr1MibML1u9k00RD8FtcfVmKpXKJWRLxxscePNPqufCgGFwPFD4FgKxEanSYJpJHS/XnRjo9dt5+MddLp1hH30v9UwRE7UmLNGthgy3axUWBJKY4K8zVIlDaliH2fRYYscCNtCIj5ED4kRXE7rAlG0/zLDicvlSt28xW1vqj5UCCgEFAIvIHC8wipfGJx6Wx8BuwjGoAs/vRzBf3pdw3+8VGC6hvVq9CIIxV9rLYBp5/5IAJDtuNusdx6++kYhoBBoAwSUQGyDSTjMLoiZ2MxYMGqIpwqYiheQyFrM4dza8ZNgb946XvW7QkAhcOwQUCZTTqnUT5TXSWyZQpWloyoYJ0/pzUk7UzJszOGkudSiT5CuV5Ppp5UiGAJ9hRVKqhIg04AnV3yPolmqphBQCCgE9gKBYykQRVmhW8oMPqwv5iRs3+CCLEmL9Y/eC9AP+xoi/CuMOipU7BhfLuHmdBnvTbjJUxowUykqJM22ioSHfr8YSQ2cAngDwmwrBoJ/lqzeefojSUC39asdfxet1kESWhb6oIYr91ZNIaAQUAi0hsDxFIhcH5lFYSadW/Ft5cn/leZqbD0ytTXQD/vsQrFEEu0y/jzjxu1ZDY+X7VjO2OkLtDXsCww6chhwF+C2Sw1Ja8LsxfGLgC4x098S1d6Wk6VCiYfMA0ocbgFF/aoQUAg0jcCxFIhiSvNQIIowrC8QbSjBhxxNbyRvaxrIdj9RNL4SJc4iy2KNM5L06yUb/jJnYIK8pAlWjmimiSDq9tdwsaMCb3MkNeZtRSDmCmUUGdnaSNN1DW5W25BKH6opBBQCCoFWETimApH1DblAC31bvWZQv6i4O1Bi2SfjmEY5ClFBif65OH2FH7Ms1B/GddxaCjBtoZF8zZeRdGg1DEY0XB8k7RpZcJptNfYvzfyNbN66qVZEoIuZ/IrGtFnU1XkKAYXAiwgcS4EovJZB0ogxaNJSk6K0SR4rXsTj1qrksZtfSePWAss2zXjwaDGApYzWujC013AhvIYr3Q50x4LQpahkk036uE5qoXSuATVTrABuHQFWKTlupOxNwqhOUwgoBFpE4FgKRBLPkKsTWErXR0dMiRkGc6yS6k04UI9LqzBMdDlVZtBMAXcXgDsk8360Cqzn9IZ9dS9iItp3hx/40RkNV/t1eN0OCqXmzZZVw4ZEwcZ6i7yGhWgeuZPIXx874iX/qbKYvjhD6r1CQCHQDALHUiBqthoirgIjH0XjqKO5cAHOUiCumVyeQgPGynotLO7NTMJenlOhaTTHooWrNI/emc7hjw+z+GothrWCi/7U5uogbvZPYBHat96QgWt9wI8vBHG2096SMJRri0BcL3uRqdaZq2cdkUwL6YeX/kMX6zEe5fnaxFb9VAgoBA4fgeMpEI0SgoUJOGr9RDi4K8qikLCsHnPvxI9VRpjajvimjmKTKNnVTBl3Z/P4cFLH/UU/FtbdyFaoFVIYttI2heFZFgT5/oiBn56uYTjqMHlgW7munFszWHC4FkbKQv1KOd5JgRihqVSKEythKIiophBQCOwFAkdz5a8zcofdQLevCrc1hcOMRJXq63PLKUTcfrhCRwsWMY+mcyU8XnOyziHw1YyGB8sa4jmN6QytjUXEqJhIu/1lXOws4tVhD17p13CuQ/IAhW6tNUErEaZlSvKlrJNmUxIk1Jlb+drBIcVoEvc2l+Vh4Q7qEIWAQuAkItDaatmmiEmAx0BXGO5F60EaRdbWm1hMYSDqRCxE9eMINBEm2WKN5tESJukrfHfKhpuzOubWPWYB31aGIGJOoki9zir6whpe6y3jJ8MFXBh0sZivzthci7uNOp2QEk4ZlspYZqBPmn5EK01nQE+XtwSvQySi9Tm2cm11jEJAIXByETieApF8YsO9UXifWFchihUbxlZtuGpxUT7sR0aEYYVRQHenkvhwrIJP5oNYyWpmqglZ0Fpu4qfrpNC50Z3ATy4FcbHPgzArALuZ+2dNbFnrQpohvjPLGWSyflK3WZsvp5FHZ3UW3poUdI5Zu5E6SiGgEFAI1EHgWApEKW0UZd5FyGs3zX0koqlriiuwwO14JoJE2VUHssP9WgRhMlMgzVoVXy65aB7V8XDJibkMq95TqFsxOe42ArNWIs2RF7tKuNZdxeXuAM70uMz6ifvBG5rM1TCxUkJG6hru1rEt3wk7zUinC0Hv3mipWy6tflUIKAROMALHUiCKX8tL7rYOsqgE3EILtsFruts8l2sOzOVDiDO4psSMdSfNrq36x3a7X6Pf1agNSvDPWh4YWyjj5hT5R6dcWEx7WLuw0as9f7xofJK76der6AlRGPZq+MlIDa/wp5iP9xMHSbcYW3MgY5GlRlIsvHRqjvZFEfJ5nh+IeqcQUAgoBFpA4FgKRMFDFvj+oIGugEFqsvrpBqw1iyRzEeeZkLi4VkMvk82djr00DjY3S6I1CZNLlkUHZ6kVvs/o0c+nPXjK6vaZkr1lX6EIGKlYIRuHN/qL+AEF4asjAUS9HpP+bj+FoZB6rxZ1PEmFGQnLCbPQpK8haoZ9nB8f2YVUUwgoBBQCe4XA8RWIzEXsda2ji+a1JzZmkdfhKeXajApf0/ESxpaq1Ixqe5JS0OpEFVmBd2I5hzvzwJcMEnq8QqGdspOMvNUrb5zfGQBzCQ18p5fm0R4Np2I6usMMmdnnbHfBe407kLk1gwE1blLLWRNuEZpz+yM0hbvs5qZnb1BQV1EIKAQUAgwkPK4gaDYDA4Eyen2yuHOUFgNNptclZcHAK6OS+E2m0xbTCprBV4RFoaZhIW1DngTcN59W8NmMEw/iDog/1Cwb2MyFn50jLC9eZw0d3jKu9DtwY8iONweFfUbnJsDBMbdwcYunSoLFVKKCSbLnZIqGSRpg5VSJLh0JcLNiF3OpNa3SynXVMQoBhYBC4NgKRAmsGaFDbCjOPLoJm+l/k8T1em0u58fjJFMBSjWEanamHhyAdHihU1XDjrWiG3+ccGDxETAR95kpCSSgMWs8vnC45bcyEo05miHKklOxGn4zmsa1IS8GqSa6KSVFKTwIYSgdlrl4tObD+Do18wZIA7r0JIbdJThtpMpRAlGgVE0hoBDYIwSOrUAUzc7rdqGLNGP9kQ02Guau1235sh0LqRruz+Xhcbh5/sFHnRYqGu6uhqhDachSCGaLdgtlrHYfmgg7L4NmLkSzeHXIyZcLp8IBRo+SD9TMdjg4wS9EAiny5T1c1jG5Zm1sG8IcGOzw4kyfaLIH19/dkVXfKgQUAscFgWMrEGWCNGqJnb4SzoZZEHddJ8dn/TB9qZ8YJ6/pzVmaXKMGOsj8thfuNCEcl4AQ1sGtm15QpmY6n9kbcgDR+HyU6V1k7hmNlPFmfw2vjdBvSH+hZnK9HvyjnGIi/sO5DNMt/CQbd1sqzCxm3jAh6e/woIeph5okSqqmEFAIKAT2EIFjLRBFh+hw5nEhkMAtRwfisBamnyw6cXPBgddGgfPMcjdTMFoEXbQwLwVTmmWmjAOoqiFjF2HochgYjdnw45EyfjpSRF9HwExb2O+gmZ3gkjzKpWQF795nNO+617Lm6yF+55mH3xvSzGCngzLt7jQO9blCQCFw/BA41gJRpitGh9mlURu65p1YYGV4yUms16Rw7jJLR92j2XQkYMPZXl/LvsROBrr2UtsUs+1+l5kSjVb4R0eoEd5gKsUrwzQzdrjI7+qEh/mZ9r1QeeuBuM33IgzzhSJm1w18vhxFgikXVpvXUcb1aAq9Hh8FPUNNVVMIKAQUAnuMwLEXiJLE3R/VMBIuYJb5hQuZ+ouwRHFmKbjuzgN9jGjsj1ZYEZ41/1oQJH2+IoaCNUZVulDeU/Kzb58I0Zo8WpmUa2Wc6nLger+BtwbsGOmys//1zcXfXml/fhNcpxlEc39Fw3zWa7kuo86nNMZo4Su9NIH7RfdVTSGgEFAI7D0Cx14gSnCN22ngakcWs6uM2qRAtBBsakY+Pl71oHOhgjcGi3DSbyXaVbNtyJ+nL7OML5xOaqmaJb+Z1XuJIBQfpYepFIOBEl7vSePH532kXPMgSP5R7RAiZV/suyTh50hEfmvegZvcaJTpS7US9StjC5I0YCRmx+m+CMJ+5Tt8EVv1XiGgENgbBE7E6uJhROK1fidOdzooHOhbs4Cd5AJmSSc2vlTBBw+S9HsxAbCF1s8S85cHQxjpsJtBLi1c6qVTN4v2/upcHv/p9Rr+7rUwLvb7EKaJ1ElJ2Uo1+5du1uQHuUIZEwvruD1dxJMVcq5a2ZXwXsLOOhik2bcrB7/L1pKW3mTX1WkKAYXACUHg2GuIMo+Sk9gX9eB0Rwn9vjQWc17mJdY3IUrE6ULGjo+mnBhiLcAIycKDPndTuXo+RoWc6qziRwxukWjX8ZUN2jWLcuGlx3FTK+yiKfZUzGCCvY43+uz0FToQCXjaSnBU6TRdTtfw0aQNjzjulEWWHbFQe3UbNzLc0PRpLNz8EgzqA4WAQkAhsGcInAiBKL4/n9eNU9ECXutM4I9zLksCUVBOl1zMCXTiy9kEegNVXKRgEwHbTOsh2fivzpZIveZkZXsn1vM2S2kYL95Lbi9aYdBdw1v9BbzN6vVvnXXRpCsBJ1b03xevuH/vRRPMFassrWXH7ydDmEtZv5eMs8Nv4HyPjvMU9rrYhVVTCCgEFAL7hMCJEIib2A2Tp/PtCwHcFS5QWkDFj2WlSV7ghzNBuL1V9McKLDtEoShl2xtsck4Ho17/7mIBMVcJ/zbuw3zSBloTLTfRmqQixdWeCt4ezuN0l4upCPpGncI2E4YyKAmkuTmv4f2n1BIpDCWC12qT4sSv9+ZwJqwz79BayozVa6vjFAIKAYXAiwg0vqq/eIUj9D7k0xloQvNiR4H195wMsHFZ8mVJmsRC2smAEDuGI1W8Nco0DlbRaFQbMwN8GDJ5hhGgGvMDPUw0/2qmgHEWJl7Mita6c0qG5DFGKZCHgnlcJlPLtQEnrnY6WQJJh85AnXZsedLfTceL+GzSTg3bYUbuWuVhlbSRnpANbww5MBwTWrn20nzbEW/VJ4WAQqA1BE6UQNSdDrBqENlasqwuz9JDeZ1aYv0AD/HziRY3Htfwz480MqZUSOtmR8DjbNifKELRy8jPi6TiHIpVcZYBI5/N2HF72UXWlhryjMSs0nkp5Nc2/icRog7StHQH7ThL/tG3uvO4NEifaIx+Qlt71Wzc+iiWKfmWU2V8PJ7DF1Nulq5yWIoq3bxG1FvDhS6DgUhedAWJhJKHm9ConwoBhcA+IXCiBKJg6CF/2htnApiWwrRJ0Jdn3XSaIsvM/YUa3tHWYZSceOtcmIEedoqtxpoIRcmE8Lk0vDISxGgv8OuiDfMrOSwnclhP51Ahx5uTfQ3Q99kTC6Az7EGU2mBQj5rnbbgxG71zY/1s9mhJwF9OlvDlTBm/e+JjVYvG0kwksvQM/b0/Hykh4g5RGJ64x7RZ6NV5CgGFQAsInLiVRjSujqBOH1wRU/EcIx/dSFbrR5wKxsJDmmIgzE0G5XhcVfoSszjf64WvyaR3oU8LeR18AQMUIv0UeGnWJswWNFNLlOAdN6NnwgGdQtBOASlBJfWJBVp4Hlo+tUyQkpkCzaQGfj+mYZKaYZ7pK1abw15DnzeDK6Id9rngY5SpagoBhYBC4CAQOHECUUB1MBnxHM2PPxwsYCxupzlUR9GiUKwaNsxmA/h8Nkdts0ANUcNIJxduanutNNEaw0yXCPvdL1+G3x0FsSDCMJEt4+vZAt4fc+Gzad2kyrOaWiIBQz6d5OO9eVzvY6WRiF+ZSl9+GtQnCgGFwD4hcGLj2Duoll0e9OONriR6qOk10mSBn0m58Q6jRN+5l8WYkKTuQROhJ4LxpdceXHu/LyFmUtEM785k8V/vePHlggsl+l0l7cJqkzzDnrCGn18NcW4khcTqmeo4hYBCQCHQOgInUkMU2MQc2UnT6dsXvUiBOYGTzDlkwrgVOjE5v1S1Y4W5hB/S5FqqVWgWXMeVIb/JeSrfn6RmBtDQZyhm0veoGT6OO5Aq2OkJtN5E+I1ESvjlmTIJFFwISJipagoBhYBC4AAROLECUTAWwuvrwwEs5oX0u4KvFzSaTyWkw1orUig+XhPWmwwKhRwcLi9ZVQyTe/Ok1OuT1IplJnV+OV3G759ojJilmVQ0Q2sQmkdpdgNhdxXXesr42ekKCby9Zi3LBi6hDlUIKAQUAi0jcKIFopgmxQf4Rl8BtWIRS+kAX5qZD9gIslLM970ZN1J2Db84V8F3hw36FJlryCK2x9XsJ6ZQs3oF8wwltUKiSSWARsprNSIMZfvhYwL+dwcy+MGIAwOdQTLStOaPbWTu1LEKAYWAQmATgRMtEAUEoXXrJNPLK4M2/DpTxHtPdeYbNpYzJ0w26zQR3pplvmKFSfapGr4/mEN/RGfOYXtHhW4+CI38FG5SoWMTBhpJupc8Q0mtkGjSRoSh3DPoLOJCJIsfnXYxqtTNDcqJfyQbmQp1rEJAIbCHCKjVh2C6dJ3k3wzmOJtHslhmVXsD8azDLAFlFWtJyRBqMhEKK2kbioUarg+UWN2CtfwCTpZnOvoRImYJJzIUCFG3cJO+Rzq2O2SgaTTpfhNTrwskJq+R8JxYDbGAcZgfqKYQUAgoBA4JARujAxvd1B9SV/f3toJCmQwxn41n8O7DCv4w4UOS+YA1plk00kTu0QqLkKeKV7tzZnWL712I0K/IPEJ+fhR9i/KIiHlU6hlKCSepWvEuibqXuAGQQsqyGWikiRlZiAXOMNfwF2eBv71soDOgEZ8TG/TcCHzqWIWAQmCfEFAa4jNgZZGWagqXaLYzUKRwzOFzJuAvkO+0kSZRqsJJuprVcIupB6vkTL1HRpwbPVlc6q6hOxpoulpGI/3Yq2NFGOYLRbPSvRT3vT3tNks4zVMYir/QKjfp1v5IAGlXAPjlOeaCniJRQsBBYdjYxmPr9dTvCgGFgEJgLxBQAvEFFGNkhbnSb0O5nEEFrHA/RxNo1tmwpii1FFeyOn2LwCQFYjxRM32LFwdqLCNVQYTFGzxMvJPAnnZslUqFrDwVFkauYDZp4P6yZla6f7LC4CGL9QxfHJcMVYThUMTAd0cM/GAUONtBrlalGL4IlXqvEFAIHAICymS6A+iFMs2nT9bxLw9qNJ+GkC83lle39bIi8mw2AxEfyzaRt/THQ2l8px8Y7AqZmpEIinYQjGI25v8U/gZS5FN9OEfz8X1qyssxzGd9ZrmszWO2js/q7xI82h8GfnKmhv/9jQrJ0XU4VUSpVfjUcQoBhcA+I6A0xB0A1h02sqUEULMVKKxS+GzOi6VMcxGjImQM+iJFs/pqwcB8woMPpqQSfBUXggmc7bRjpDdsUsodlmAUIbiWzDFatIJHa348XNYxseLH4roXiaJUBbFOWrAdpBJAMxQ1TDOpaIYiDJsttLzd9dVnCgGFgEKgVQSUQNwBQam/18Ho0Kv9FGdkotEcFdyeJ48pq92LOVQ0pUabCJW1jI0vJ2ZoRp1Yq+Kpn4IxbmB03TCrw0dZODis80WibxdrJ2rkXd3rZgbJcBDpfAlJlpxaZ+WPVQq9uTUDE6zNOM6+TK4xlSTnNsfayv0lEUNSK05FmYpy1mP6DMVMqjTDVlBV5yoEFAL7gYAymdZBVYJk8qUq7pPM+4OnBt4Zc2Mta2fgjI2mxTon7/K1mFGZtw+HrcZgHsDrsjHqksIxkN549QYQI9+ql043qYrB+hfmS/Im5b1okvKS91uL54qgFm1PhJ68auyk5A0KKblEzMpVhGotky9jhnkiEysljK058CQVxjIDgTJMOakwr1KEfivjk6ELA40k3V+MJPGjUzX88pXYRgANx31YmvAuU6K+UggoBE44AkogWngARLBkClVMrRZxa7qEf3niYZV7J9MQGmNl2elWlGtmfUQxK/qcZfiojfooCKP+jcLAXX4gYosjbEuwGoYHIb58NDnqzOPw86ebEtUu0pVNKk5kqfmV+DPHnME0O7meyiFBLTBRofmzGsYSg4RWMtQQWZkiw3zJDHMnsxWnyc8qgnAvmowp5iFrDxlofnjGwZxMF7rC9Bmq1Iq9gFddQyGgENgHBJTJ1AKoos0EPA6TpzTgrMHuMMjZWaOfzY44CwxL+kErjfIWFb7Ex5jKC6m1vBiFSpdl2EOeT9ZLDFCz89tYIJj1E31eqZMoZkfRLA0KRoMCcUNdrfBClIcUjEz/EEGXt1MoOpFhAeI0S1ylaLZNUAtMU0BWq7oZRGPebI/+ocJKtpkNom7hJhU6NmGgOeik+yole4ETs84KHCkK/SyDovKGF3liwH2C6RNl3NS2JmGdVmp5yTjcgrFWgddegJ9YB/kcBLzi/9SUlrtHz8zWy1Q4b3mSY0jlFCHIyFQcyBluMkBtUCqK20Fe26X7SAU2sbaQNdGcN4+Dm0t7CQFXjfPmhJ/zJi4Isc6ophDYDgGlIW6Hyi6fmWwteWqKc8C/PHLiFgWjKRRJ9N2qiXG72z7/x0uhR+H8/GfbnfX8ZzSePlNlN87cEJ3PH7MX76S4r9QzlBJOvzqTM4m6hZt0v+nYZDxiGpbFtMQNQdnQqB1XsJrMY3IxQc2+zChZmrprHUiUnODHyHHTYG4cuLjKhmSzCUJelqT0U1sP8CWbkQ69gE7HGgbCNQx2eEy+VZ+bmjkXXqe9anKviulamYE3UbT+U8z5sokj5wOEAjHLVJ84g7sm5tcwzVSlBfqx12oxbuKc3NhszFuBc0cvxnNNNmIyb8yaMucuynmLunLodibNeRvq8KK/MwAP583F59TJl1hYxN2g5u05KE/0GyUQm5j+Gv+IUzSXzjM/74unGTK3aLi94DE1j/0Qik108cBPkeCZQX/aLO778yshatMOVq3QGBi0/5qUCMN11u6ajOdxb7aIiVwYc2mdGxXhXK2w+gYX3Kr4T3WTjq/yzD/Kadx2EyNWXeEJIFc7fbzCPFQDifyoeRjU2u3U0jWmj9hxyreOs8EULg5HEQl4oesbmv2Bg39EbyjztirCbzmP+0sMMMuEMJ92YJXUgAWWTKGiyNJqdiLvNOdNzPkyZ6Idbt3EbA5f8lnFcyBzJ9k8sllx2KpwaZw3lx0hWlcGIpw37yrOhzI4NxRjUW4vnIo/dxPCE/9TCcQWHoESV9a51QK+XjQYgarhwYoDM+v01e1NveAWenZwp0qifdRbw5loAVe6yqx0D1xhcV+/BAPto79Q/Lrx9RzmaQOeYbWR6TUGCcVL5s+Vgh/rRfp4qUlst3C2go74Rk1qPmogXa4Mer05DJN2Z4g1HIciGgaDEiGsUXAq4bgdzmJhWeEfiGwmp7Oct1XOGSumzDGyeangJV2iw9Tctzu3lc9EgxS5F+G8dbpS6PcVMfTNvNkwFChxo+M0I7tbuY8692gjoATiHsxfoVgisXcZ70248MkU8GiRPqvSRiSq7GqPW5PFRWSdhxGkvSEbLpCT9OcjafoKGTgT8YtVd9+aBAsVqPGlie+DqVVSyVXwxWqM5jXNLPAsN95iAd23fsiFN4cp2giVDVzrrZGiL4Mz3W70RNwMkDJM4gUxp57kJpsSCfbKc95S9GV/PbGCm7M23IrHMMsNpASnSTvIeZNnVPyNI5y3V/oquNGdxWi3j75uVqjhvDmoZm6N3t7oofr3uCOgBOIezLCYfiSVIck/9mma7e7PlfARE/mfrNixyqAbScqXReGg/uD3YEjbXkIWETGNenXmaPoNvN6bwRtDDJoZ9CLiFv/h/uUXCn5iKpteWsfXxPfjxQieLktxYkbJSoQs02AOa/MhuEgghwRBBfQKznZpZCIycKO/aJYAC1DzOKmLq7gQyrSkTHHe7syT/WkhzFSfCmkN6Q9kwEyJBbm3C5DZ9gHc4w9lnyKBU17dgF/Sg/o0vNZfY33UEv3gLkZ6M3p7P3d3ezwedbnWEVACsXUMn7tClh7/5VQFj9d0PF5ijt9yFRNJDxduGyM9RTg+d/iReSO76aCbfsJgkf5BG8516zgbKWE4pqErqO9rYEKR/qR4poqvyZ7zNfNBHyxUMJ5kNRJG0AqRejs1rrEmRd8gA3DOxsq42l3B5R47zvZ6TROyfH9SmlhOlmjSvrvixNczeTxYIuEDmY9SjHB+MSimHTBhzA1k3s51lHCtu8p50zDU6TG1fBV40w4ztP99UAJxHzA2tRlujZfXsxhn4vsXi0E8XAFmyUyTzjPQgzvjMqNSRaNpV/koC7eYAkXrkfD1Dp+N5iU7rnflcI076bN9XrPG40aU3j6AyEuK5p1m/ud8gn5aahfvTXjMShsraSEdEF21PZtgJ8EdEsxxMZbGW0NV/PBiGH1B2VQIrvsfaHSYyFQ4b1nO2wz963fmDbw/6cGTJbI05drbUiLzJq4AN1OrrnSkSUAPfPdMAH10CwSY5uRQvLuH+VgdyL2VQNxHmCUNQEyp+Yody8kCxhdJlP00j69XQ5hlIIjUEmxXjVEi9oSM/EK3gVeia7jSa8fpvghD2m2medDl5AH73HLFKr6cyuD3T+z4hGWnVnMbGuFhmUYbHa5Y23SG90e9BoY7NPz2gghH4hoOcuHdf/wa7e9eHZ/MVfDVVAq/e6yzWowL6880+aM0by5GFsfoFrhA9qi/u5DB9X4NUc6bascbARrCVNsvBIS8elPL8jqcCLu96Ak5cSOnYyHNskrxHPlDK1hgmajVkt+MimTswYE3MwKP2qAIwC5vCV06c7eYtzXAnLvekIZej48pFDay5Nip+cg+en+bRCJOLOVwayqPT2d1lp5yYiltNxOy21Ur3A4R2ewUaQlYydFftkj/a01nWkGVZa8KZlSq303Qj1GTDeAYN303Jwv4ZNaFR3EnljPtbQnZDn6Zt4JsYtNCusH4gIqOmVQNPziVQ2/ERZ/j8Zq37TA4qZ8pgXhAMy/0aj3ykkKIbKlsgVyiFZqSSvSH2UEXC1a4WGaYmJwr0lRY1s0/SmHl2Iu2acYTxc7BWRfNxWnkzbw64UsNSW4dc7RGAjUMu4s406ejhxF4TqqKNhsl5QE0SaWQBUiKD38yUcbv75XwYN1HlpmjncIgmxwhA/gLhcQq57daLeItfjbaqSNE5pujHrch8yYRpJI68afxEt5/WMGDRJA5hEdbcMjfXpxk/J8U3EiQ+7fGebsxyhSNKFlvGHBz1OftAP6kj9wtlMn0kKZM/GObJlVh6CjXbCZDx+xKCo/n8/gs3o2n6/xDbCCn0c6aiyL4XvxDlYCADd8ItUDmYcVMTZDsK9VJjHS6MdoXRV8sSDo4zWTw2CAcl3NEGO6/Rrg5BUXyzS1zU/DfvnJQINbwdIW7c2IjpOR70cyr8J+Nq9We/Xzx2qKDbvonN36KxrAXTaB0kmIv6q3iR0MZ/OychhtnggzaEJz34g6Hcw2hyJukf/y/f63hs0nmF7JqSpkUeXsEmzlP3+Kz07xtjH3jnns8b7y0TlKGsKeKX51K4SfndbwyHNjYLB4O5Oqu+4SA0hD3Cdh6lxXTo04qlM38bflD9usudHiDiAY9iD92gvnKlgWiRmF4KpzFQCCPoF6l5ucwqamkhJTQVQlZuJh6PEyNkEAZn4P5VrUek3Ul5BOy8A2hyXAQ9uRg/VuiYVSoRt1fYuDMmB1/ngDmEvQX7pF2LHMhGwLCaga1+J0leEsLxLtGYnRqn8+EkcFNSplmv4LhQq7mQ5qvBP1fpNXck2hWEaxlMubEcxo+mfGQgaXMW6eYtuJjMv/R04LN8VTK+HIeeJ/z9ukksEBrx15GkAoJgsxbQOj0tAK85Xn6se3PJdALc5T46gs1N7LwIVP1syINTB+9cPrB/1YkAABAAElEQVRuCEl5Cpprcr5Ut1llNZgPpryctQoDvtK4NOAnx/HR1oKbQ+T4nqUEYpvMrazJIsTkBeZFdbCQsIe7UqtNtMNBfwZv9eUx2qHTpCME4EKdxsWEWqHXzWAY51beRlmAaRM95CbCUFInJlZr+Ogp8O4jO0P1WxNApibGdUp4VQOOormYBkns3BXUzGjZEDHxU6sJ8XsPcdlsIhCFfShHLtQMF9l1RgEvZynASAGXzFZIvF5lYjm/owmXp29L+7Z5rZ1+yoxWKBRnUi7UZiiojRzJ4ou40EsfLanFvtWEdrpC+3xepHn7CbX4Pz214YNxOxY5byKAmm0yE7I/MeeNwi/gsZsbBZm3qNeGEP8e/EzlEAo27vG+aWJtKVEg5li3NM3fk7S2LDL/d42pOutZzpnMW0mjgHRScDY3b3KzCq87SauNzZYn1X6RlG8FnO5ymf35pjPqlyONgBKIR3r6nu88/9xN/tBLo12mYLVRC5UF1m5jMAx/HqT58/me7fxOeEWXMwZ+91Djwioahiw8Ox+/2zcyRomOFfNWB3PKpCjxBV+CifJ2jPaGEGTZLJ0HcKsAuzFipkbQWPnNJUVYCRG6GJ5rBk21PFLqSKYZNbm4lsfDhSIexF14knTQtMsFmFHCUjtS+DWtb12+uR2WMjpTSSQFI0O/YhU3TtMMR4aUdpynb3u98Zv4epeIwT/eEzMpsCTz1qRGLwG35rwxTaU7BJyOVjlvq8x1dWGwO4ggqfDEl22n9mc3zu4wbzIH386bPENJljebX83hkczbGlM/OG/xFDVJansi3Jqdt5mUG3+QeQPnjRd5ddhPC8TG39qLOKn3RwsBJRCP1nzt2FtZDFarESS4bOg6Gf1JQn0U2sy6mNuAz6aZp5kQk2JzvRbBz3rKGKXSe7W7hLMkD+gnDVdUj9D3Y6NpmLUYGVG0oYGJENyiYtS5ZYiadtTjNSMMrxc0ao1gCk0aD5YdeLTmNUkXRGNstMmivM7rfUzzqU4zd8yfZ/QpKd+kjlGbt/FV0LwNfMF5W6Bm2KyZVDYxUfq0z3QYuNpVxKlOIU53IuIk8TbLnAU8LgaBNTdvQdIHxbw+DMbceJU4r2QNjM0lcU82NQkv4owibeZ5Ew0/nnXgQ5pP3WRoipDPdijGOTyAVKQ2fyyOfPeUQDzyU7gxAAk8Wcj7McfFushCf57nzKPtN0jxPy2nSrjN8ll/HHNiKr5RjqnRnoqPyU8Gnd5A1RSCV/sduEaNcDDMZGouqDYbqyu32CSRXrSUIBfuYV5LeDnPMVl7NGbDAPv9YL6MaXJyruWEcIGaSgPqomig82kX8/XKFNwl/JLm00FGMerO9vQpVmiaXOG8iSB8/4mDvl6mKLAqRaNNPAMB1pfsD1VwjvN1hWQPrzDnT5Lg/Yx45reNXvKl43XmPOmsuBLmIzDCb4ucnLNBG4bjNrLncN4WSiTj18xNSYUbmgamjfNsxzQ1xc9mpN5iBX/lLNIk71SVM16ahaP1gRKIR2u+duwtXSem721K2HBo4vPTeeiU/Io2beL3uTOZwoePbLg3FzTz9Rrtqmh7PtYsvNAF/PV5pjIM2ZgqIpofIzD2sTm50I70RvgCvk9GltsTOfzbEyf+NOUwizw3qnXI3I2tOk3C8oFAir5NF2Jh8SeKJtteLUdV8IvxJD5iLdAHC80lqotWKEEyl3qA314s4lUmvXeEaA61U8Xfx+bi7ul0f4wv4If8G/l8LI9/HdOZDuOh33H7YtE7dUeEp8Fz7i/pyJBo/kw4Ca+DnL6h1jdgO91Tfb7/CLTvirn/Yz92dxAmEOFR/XI6x6ADcoyG2nN6c1QpFhkG+MGUC3eW6Pmk6bDR5mD6wqXOHIWggTfP+DDCfJJnKZ6NXqql4700TV9mtGHIVyWbTxHvjut4skxtkZp6IxqHzN06mXh+94T+KEZR/ixgkBGocVxaGkydkzMsS/F0uYB3SaF3nwK80SajcdBP+Eo3g7+G7XjrjB/9VLtDjCI9CMKHrf0Vs/T1ET9iwSqu9pTw7lMnJqg5Sr5oI018lXFGn/7DgwBq/Jv7UZDOC25k2mvmGhnRyT62PVfMkz0nTY/eNEOSRPyLWQdOU3vp4KJ60AtNvc5LVOkyfTkfTgBfUxjGc86GTIyiXQjJ+IWuCr4/zIoSQ0KczTB8ico4hCbBFDGWaQ+4yPdKs62TaS1hV4kVOapYzLrMoBsr3ZK5k2CPe2Tl6aUZbjhUwulu+qjaxC8l8zZHX+HHkzYzsCiRb8zPueErrOEi5+2H1ORfH9JwhpG1mv1wliAJXuoMkJCCUcZRH9NvGJX98XgB9xndvZJzmcFUVuctyyo3txd0bspKTHsq02fpYUT34TyPVvqsjtkZgcN5Gnfuj/qmRQQSBR13WKj4e+tVDEdoOvU0vpNvsQs7ni6Lfp72xKcMyPjnx34wLqVhYRhgEMMFViL4366ykkS/x/TbiFA67Oakz6+XGvlvLrIArV6Ezyjiz3MamWkk1N9a/za0ROAuBWKPXmCQjdOsJHLYmxoRhsIr+3DFhvcnvNR+N0i6rWAuI5co0iDn7WpvBf/rlQpTTLwcm8OMzLRyjf06RjQ5nVWDpZZlD33OUfpvPYzU/pTzliw6zEhUK/c2540WgVtTRXTQl/jr607ESNWoSkdZQa+9jlECsb3mo+XeiP8qzhysO1M59DBp+Poo49jbpFXpLBtbIEfppIGphL+hYAyReVJz8PtDRfzyXBXXhzxm/pcUcm2HJu4+WWCF9ODakA8edtbrzuKjKY+Zu2bVfCqLq4T1fzLvwPXhEnPyJI+UjtJDbJLj94DRWnembSzo622IMEHmTYJnfnKqgJ+dYSTpgIeRow6aTttl3qilsitMecTro376pJn878rg42kv5hjsZKXJ3Mpm7ynLvH3KebvGZ1RqhgoZhmpHCwElEI/WfNXtrQRoSH7clwsOaiwGzvUUmIKhm7X46p68jwcIm4hoGXfmbbg5Z0OefZS+WmkibEIe+p76Knj7DPCdQQcjB0XDaD+zlCzzEbLOSKI9yS+ZjlCihljDfMZjmYIuW3ZgmowvNxm9GmTZrQv7G2uy6xTIvGXJv/rFrB13FzbYXyR/z0oTYSjmyNcGqpw3G14ZYMSnrz2DhWQ8MZpQLw/wF6NKoV9CbZYFqLNuy+bTdMmBCUat3mb0aohk+CMMHJLnQbWjg0D7rShHB7u27anwfz5e8+HLRR1TKwVqYk0m9+3hCIUBRkpg3Vl04smq17owZB+8rE83Eq3gP1yu4I1h5hYyEKMdheFWuEQLuj4SMAX4670kUaeyIPRxVppsFNJFKXnFfLlVjQnv1YZMy1buYfWYAqNKF9aL5rP0lLl7tQYCoLxkAjrbUcXfXqJGP+jiJsbblpGzW7EQCr3XTgWp0VYY/FOgxih++K1H7Py7bBQSeRsrtLgwscbkf26ERHNU7eggYHGqj86AVE83zDeSKP6QvsT//6GXNFZCkH24f5mJTAWfjWVI/FxuiBfURkq68x30y5zJ40q/CxH61URjbPcmXRTSbhGKv7wWxiVqjJJqYLUVqEE/XILJsrLMkNUqtc3DaMsp+tQ4b/OJipl838hTdK07j786U8DFXlb1OCK0dDJvEhBz40wYP7scJFsO+XGscziY1pkHDMx5sphHnAXCa5KbodqRQUAJxCMzVY11VLSMFQrCz6dJujyeoaaYPzShKGa3FVZLv7noIU2bw7J2KEn3AxEbXhvW8MYIhSHNbRIdeFSaCO4gNcXz3Qy2uVDGKKnkxA9qRaDTbYcsyd2fUtO4x42N1Oc76FalhrPI8kc3FzwMDtIsz5uMcSgK3BihtkWNPsxEe4fYT49Ik66Kafdyr4afnq5gIFwj5Z+1zosPOE0y+MdrGl/WA3OsXV0dtd8IHPxf2X6PSF3/GwTElzi9auCDhwUGsuRJdFxh5Fwje/xvLtX0LxsRimVylFbxiIE0yaK17bYIDbKt0W9o0EzqwpkeLxelo7OobgWsw2vgl2cquMYoyxh9ao3IhumkjluLblPzECwPsuWoppLpzJw3qzUpZYZEE35j2KAwdGG0S+btaC4zfUxbenu0gkuMao54rGt6wj70NKHj7pKL7gpy4x7wvB3kM3Lc7nU0n9TjNgv7OB4hn74TD+EP4w58/DhlCsWD/PsU+TvD8hWPZhIkW66a1GZWhitpXB0UHm+PlmgyrbRFcIKYnUUDkGTszZe8l893w1Sj6TTAEls3Bip4ndVIXI7Nmn71kZDKH/cWWLWBNahKrZSSqH+r544QJqGnC+t4MruOVIHluSzIAxGGzE1HH5Pdf322gNHI4Zh5tw5EthBb503c6TKWb+Zt68Ev/K6RkSgadDGyuYRr9Cda0ezlEvLMCy/vwyVW2WAhcCltptrRQMCiIeBoDEb18mUEZEHIsOzNfZbpMYM67Dm8OuRCf7QBh9bLl7X8iSwOk2k3Hido9iP/o/THSuvykdKLDCJnOhiMwZh4q4uRlWs3eoz0WQIkJpbyDMUnC01xQ2PjesmyRAZGAzl0k8cy5N8eU0nH0MiHeqHHheUc6z6uMn3BIgcoC7WzcHQFj6bjCDiD6O04mDQaGfM40wjGklIj0mLeISViX7CI6z1lnIq5qCke7n5bNLM8g4Iml/NYIBn3WpF1Lokni90jRo1vNJgnmxNJFXZIa5E8Qg8l/NU+F/lmDXxF/lMp2F2PyF02R+IDXkqUOG9rcJ+KoFMIVVVrewSUQGz7KdqbDsazOgmk7cy5ynJx526X/3VwEd9Pc5YsSGVux6fTHjyVygIWIhRFy5CovlGWAPrBME2MAR+rHRzeYyqaUqpoMP+uhk+esIzQiob5nE4/EZO62a1eakPXYiVcH6jhHH1OQQaP7OQv6+biK6QCFzvLSLJIcKFcX2DI4prh/b9mCsZQVw09Hfsfyi8alUQFP037MM2cViuRpRvaIdN8qM2/RU045Asw17D++Pbm6X75KuK3TpCGbZJ1Nj99UsKTNePZvG2Y4vs5b9c7i0wFMXC6x276erdLpJe57I24GBhUweXZIm5xc1my4M+VjeB6voa7c2Sv4bx1hl/uo/qk/RA4vJWm/bA41j2SHX+GRVI/mfFjNZ3C0toS/vaNbpO+aqOWmyxpe9skKCOdy1OYOEg87jTNVPXuIP41Lwskn2Hh1ddGuXuX7fwhNRHoRZopv2bU4D/c0fBoidiRpcWspUdARWudS9hxbz6AcdZL/Kt8CjfOsu4iA2m2a3J8l7eEN7uTGF/2k0DBY0ljLtR0PMr14Q3muZkn7P1UPdddMfGlM3nMrOksbWUtCEo2MUK0fr7XRUIB16H6e2XeJF3k5oyBf7pvJx1bgGZfmTeaSjlv8ozNMOjlHj+fXM/j54U03jwbNgtoPwfEszcyb/20WPyob50sSxHynboszVu26sbDbD++W1EJ+tvh2o6fbf+X2449VX1qGQEpEZWlUBxLeFCsOZDmDv7GYBGXuIMNs3juXu/oC7QtTS0mafLzc1dtjbNUs9dwKpjBKGviBb3eQ2M0EQ0jTSKBz6aAP47b8OUcC85Sq+M6+1wrUdPOlTUzT0/wG6L2J+UMXTuEJUr6wYUBH/rnWPKK/kHyZdddXEs0WU4nnWY9vzLrFEm1DTHD7lfL0t73dD6BRDpCa4Kjbv+kH26tgjOhLIZCLpZv8hwabZkU7BUCiD+OG+a83SURxBrn7UU3nsxboaKx0oUI7yqDtki7Rk5aXUKbt2lRJu1fHQ6iZ5qbO5pNxSQqm8zdWp4WgCkSLKzmarSUGG1dfWa3cZyk75RAPEmzzbHKH3Gq7GbkoBvxB8BauopkpkyNDPSDOZ7RasmC2zow4v8Sk9V6fvegk613crIawmWaskbILSnBKIfRxEwq5q6HSwbefWLHX6ZYEFZ4V3fojJg1l9LkkF204ymjYCJuLzkthZHl5RM8Lif6og7yzNK/tFSmj6v+RkEWc6meEU8VGaRBJpyAh9hsc/GXb9fUJ5Lu8WSlZgbTyNisNB+T8K9w3gb5DB0WaYJsYtayMm81vPNYwx0yIonPT8yX27UqTfhz5ryVMLmYom8xgKhze1ogn1vHQKeT81ZkLq2BRW6CDG4wd2syb/GMwXkrgQo3500tt7vh1Q7fHc6K0w4jP+F9IPmJyXn6zpgb/8fHTvyXj1Zxe3yNwjFP09IGw4bVxXAnKAusSj9b6UGmaj2gQEoeXRl0s2KAzj384bRSuYxHy1X8/ZfM46QwXOWiusOa+k0HxRSX4Q7g3vgSFlcpPXc5w0Et+DTrHg77MxxjvStvXEkW15X1AuZ5baGC28+WM9yYqvQjX9teOGx3bx9LVl0d9KCPmv1htE3z9lfzVfxfXzhwa3Z3YbjZR4EymSETz5M5rCZzmx9v+1Oz1XA+mMSAN7vtZufFk0QQy7wtreWwJA+Ram2PgNqytP0U7U8HZRmWxaBQsmG5quOzagjzNKd+RGq1M5304YXSGAob6I4Gmi4hVSxzB57SWPiWGqKFYQi9WUfAxghYL4MyDn6vJpqhCMMPJ2x4j2bSe+TulDXSqvypUiqm80XT7yjj3UmgC7nAqQ5qiTGDJN480Ao4PGYtR80kZeAUF9n9bDk+EzP0jUpEppUm+aKdQQ19MS+rq2xvcrRynWaPETNphoWaP3gKvD/GhPhlkhpQI9tJM3zxPkKNl6JaXC+tRQjJz3U7cZeBVbcZcWplGmRTKVriEl8XXryxet92CCiB2HZTcrAdkrW4WNUYlu5nSgCTsNf4YorG2TD9Klywh7oNlu5hoItWZh36PAsP26HTP+ay4MdKc1FaoA9FTHBWmtdZQT/ryYXog5Lq5gfZxNwmZtJHy4YpDD+dsJtmSqvCUPpqowwXujYzSGmXzsv3fVEXX1LBw4YqBY8VbXy9xCAXMsZU6pjqdrm1pa/I5W0m5AsBu5UW0MvoZYHksNe9ow/OynWaOUbmbZVm0nsLNfzhCQUVNUMypjXUbJw4mTd7HdJSmbdBpgH1hPk3wMdTgnTqzZsI5TWSUcT5t6Ba+yOgBGL7z1HdHoqvSlxKdpp05A+wymR8EXSNNjlXhNiDRRvGllnCiBpbgFUmBiMG+j0ZdNkWqQm4EAuzyjmDcDaiU3e+y0RcY5SijmLJmrYXdOQw7E6zFA8dmrAmEGVBkkVRUgUk0ERC5+WnYGK1iblNAmjEZ/j3X0r04YbPjpe13OR+OjcJ3bEAk/AZbrlLE9wkiKkjVCO+TEehqvFisM52pyfLHsyTFiyetTNaspkZ3u6qL38WZwFnsfAVKRittLAzi343DeS2Th5udd6E5GCDxcWcN2KyXdrDbveX89P5Kr6aZxTwXQ0PFigMd7d6vnQ5mTfJNezvDNUt1yT9E/+tFN6WlFPBh7EyuzZJb1qv+JBgDq5q7Y+AEojtP0d1eyhl17r4RxrWUsxZA6bSQe5eG/8DlL9tWWcl8biEDZMZC1QgwUVmTHPDbes2Fw+JoBQtceMOO0ueNPuyRg5TEbRWmt9ZxYAvz923dUkkaRGJVA7ZQtmMvowFWWWeZJpWI2bFTCrXkGhSCaD5ilGJjZhJN8clGkOUQRMXhzuYc+YyhfLmd9v9lKK/QSau9wZp7iNO9QSiQLictuODMeE3NUwNZbvr7sVnUk9Tol+tzltIr6DHW6SWZXGi2ck8pUkilWdQUYnWAKcpaDx8kGWzYKXJvGUKFZq3gffGJLXCBl7Osnlb7iF3Et7VDkbGXj7VRVaa+j5TCRgKkYyhOyBBRxSIdbRoQSTDDWGmaG1c0i/VDg8BJRAPD/s9u7NYF+m+wetMMBY/iH2auX8sMptnWHkrTYSjaC+y616HaD27az6t3EvOlcCMHiELqBNdKsn+aRK1zqY1zKyDgSb0GZFeTBbkKLWufmq0g/R/9rEepE7VeacUBVlUE9Qw7jPP8P0xmxlNKtGcDZlJ2W+xtPWHyni9n2WqOn1kPrGGu5epCt2eIqbswu9a/xwRnPKaJD9tuzRZ5oWRpiugQej2dmslPkxp2mGnmZM6naA/lBHIdLkyRcUwteU+zpv4rfuCxJTPwE4iRHyGEk16Z47mbc6b1QCarX0TzVAoVofDZXyH8zbYGWRB5zoDeHYBH90HHe4yJu1OOhF2nzeZKYm2zlr0x27to/r94BFQAvHgMd+XO4rD/w2WrOnQqWHZEnh30s6Fh8VNhXZrX+649xf10EYbi/h29UOJkM5RG3w8l8I/jXlZe46VGDI+jtNndkj8eFf7gJ+dJZ/m+SqiLBe1HSm4XEfyJJ/Ga/h7Jt3fpYaxtktqxU6jFWHo4YL+el8Rf3OuyIK4kbq+qM1ruW0FRGxxOCGmRtpOj2jzMaomSkY5h3DZ7dBMszQ3MfdmkvgfTwIsousmQUTgGx+ch3uCi72GOWe/PGfQlOzcVsuXeRM6tgdMrfh/v3LQvM/NGjcxjT7j4mIIkr7te0N5/PJ0lSZQt+V589hyCNvScCDG0e485k0o+Liyz5vv1M92RkAJxHaenQb7JrvefnJI/uaVKHpiFfxpoohPptymOc6q+avBW+7p4Top2gJcXMWcuFOTKM57rEj+X77y4XHcSZPshhYrC6XZqNGOMQJQAh4SeTv++mIFozFqL1sWa1mc8xSGf54E/u3xM3Mbr7N5iWdXqvtDNAypCP+r82X8+BRz1LrdNP9Z/5NyooyAPQuHLVL3Xu18gARAeZmnt5MPUPy7aUZW3Z6r4P+5E8QEeW1JEGPO0ea4RIt6zPqPNZr6V+jD/PcsBt0bYtkocsBuNvEViwVEtMJ3GUDziMeT87zheRMDRDdN1b+5UMKPRl0YYMSvVVOt9MVlK8PPedNQn49NnktJ4pfKM6q1PwLW/3rbfyyqh0TAR5qU0S76+/QiC5tWSYNWxCMKjkX6nyTa8xvB0YZoueiIC/nc22oGm92dTdJENk+Nbkmnr48RmttIMalHN75ioy/UZmJQog30HJUwEYoiDFMM0f+S5rb3x+2k96JmSA1DBKjVJuJaFtW+UBVvDFXx0zM2nO1yMOWgsRw8zW7AQ5YUO4sgH+Xm1oVViEJF1K5tmpigJ0lmfmvegftLTrIlvexXlmOSFJKPlm009dMMy0r1bw2TtYhKmAhFEYZrZHy5M/eMOUiiSbmJaca8PRKr4s1BVlI5bccpJtv7d6Da22Yo5keSR+o2522nI57/XJ6tRp6v589W7w4SASUQDxLtA7qXmE/7SUgcdpdwLpbD71j66YsZlvOJG9ypbnBxtqNgFO0qRBPnbrv1cRZdvb2ocVHlYriLHBET1SR9i/98XzMT2YOuCv1c3K2zPt2TeBX/+DWZTBhAIww0jWjPpjCk0hJhYMWbQzX83eUazlAzlI1Io02jfVciU3fTiBu95oEfT0AkiMnv3Ug32e7+wv36MC71AWvE/2VhuPUc2bQ95WbmHxmVKQQRfgbsxGgNz5VruL8o5m2HmWe4GwPN1utt/i7zJkaCiLdG0vgq/vqSgRGmUEiEaaNNAmucFNJikVHteCGgBOIxmc8X/zhlkfVRYxl0+PFbBnlc7Czhi6kiPp3xUFvUTEd/uwlFGcNOATCb0xSnVrDAorXCtLNbE1kpkZvzPFa4SKXi/L+jaXNq3YZ3aG77iqkV4ntqRBjK/UQzFGH4q/Ml/Pg0E+xJQu5lbuaL+O/Wt+e+OwaLqqQW7DZvsnFZIdZLme01+q14yDMpUc4zazbmFUqks4GfnyZzUJzvmXT/kD5DiV5ueN4o92L+Gv79xRJ+cErDcIcON6OAmp23YzBtW2FXvz9DQAnEY/woSKKxh5GbLD4AP//4YzQN9TKS7+FSkbvwKmu8uRn9xp14HeFyUBBJzcFiqWYm5e+kNUnUq9X8OFlcRVOcZv1BWWRNVh4uynckX61BM6lgID5DMZOKZijC8EI3fZ6sxtHsonpQuO73fWTeSmQjcjBKczs/osyDzJnMgZUmwk58iuMUgnKOmMZnU2QOYn6smFUbEYYyN2LJHWax4reoGb59xk7N0NGURm+l7+qYo42AEohHe/4s9z7q15k/5WQkXxVPFkv4y2QRXyy7WL6oQl8Mc/FY/UJ8bofp65B0igwdSA6HizmO25uyJMVEcscaaRLQMMnFdY5lqGiF+5/tvfmTY9eVJnawPOBhX3Lfa8naWdxEkZJIam2p1ZtnosPjsN0Oh3/2XzH/h3+ww+HwxNjTnomZHo96Rt1qtdwkJYo7WWtWZVXuGxL7+rD4+x4KZFWpMnGRmUACyHuDILKAh/fuPee9e+4595zvAy9jZ3up9AaYTcoEGu4ZMkxKz/C4xpDJJlVUdtNgDGyjsUOiSwGcjaYHeqP1ea7RKDHXqNPoJMjmER51yHLiiHrjdVmKE2jId2EMqbdzY9xff/G99Vy3D/ynrTcsAlT1xvHj9tFtACTQ4dQyACPSXXyhBPhQcm/R5XSByNYvU3FTflh2yn1Qt99aL8md7Kg8SBg24HcnK/AXXuyIH5LaiNRDYYJjHjBnsd5yCnVqICdQNt60Nwzb1emh4J3/7qS1SiuYTcoEGu4ZHitM+uTiJRiSfYAKWHR7B7ixvrCIRKU6Fl0varSRY0GHDR4BMhCpKw7X1hsWL1zEsHWsN1yXxvCfX6/IuwiT2sYQKyp8fKxWKluSQnorPeN2jdfiIq6D5ON2p9Tfd1EC2iB2Ubj9eGru9fiRAMLXGJa4EbcpM1GX3CiBCR7A0Rv7ZRudP1n1S7pi2iGqHDwszN3KK+KjjruJXlJAkbZfDoIAuIBC6lcmayit8GBCwp5U+znp6+6oruhbP+BkRmM4E60jTFpFmNSJbFKXHW7jAuO4zXL4JO2aFMtx0GiPe4Xe/L5oG4iyjMdQS/lUeUvr6symvRKvyGPwbj6E3ggu0JHeWifq4J17vefjNfneuZq9Z3hhzH2kBJoXXbLoCEoGY6o51LKKGdE4RZ7rFw1Bf3aABLRBPEAwZ+Fj7veMx4J4ibyCAZPpIZGuyr3VnKwCkHgNezeb6YbsAMorW6rb4b0aZjIivFQbsERtluyEj8uA74/ExCqNBnE3DS7EqYOt3DmAjr8xbdmF9Hd33HatYbc8WrvOEIkYr8/U5F+8VAP5r2mHSVXGonJMGRNr0hmQqmLZBftDWDsfkFIcir9R6cfzx1SQ4ZkFkHgb9X79szzC3PtYNVUPSPtlvxdjVUkgXP8V9m8fIlOYDPbd0BvvNBrDMUCrvYm93j+/BnYQhLd9SHw6qVZyhLGQCcIgtj8jF04EHeBLt/6XgDaI/a+jnvXQQGH8aDSI4nif3Gy4sdfmtKHbysi6IYgysSdJk5MplCSHZT73Ug7zujaLpvxyFXyIltpKOg/Mx6089jIPmWl8PlOuAKLuf3w5I//mll9+C6Qapuqf9OTKSTWMbNKfXbaAeoNs0gkwcHBmP8HGxJEEitBVI6ZhOGDnImV5ObINAHT8uEttGcg/fwe9Uf/tGo1mFnrbASu9hfKKFzUuvAIBn7w8U5L/qZaRf/1VEGTK3mZd7It+cIzPqLcIAOn/AtmkTKA5P+ZFktaL+3XUy+SR+craVVW9EesdmPi6DYAEtEEcACX1qosMp7J4/WlUF1670QBGKnBRC1ETWaBuZGt68MJGEA3iIX7EEjyBT1NOKaP0QWXyyFa9slp0IMHngA1E9KUJrmzIjRm/ZBHH9bgKKCVBaLcEBoiDHcuOREi7N4Vs0ncQbmuGSU8u3NaUZ5N3MQmOvK0sFgAKto1TesxTkGsjRfn+YgjA4Kr+W0dDtw/+ZNMjHyIJicDuKhnIKcuUjSJwdw4xoNQbE7tIIpy2Kggh1rGYMe26xJNI5KJ8GN5eQJj0nfNVefciACqQTco6Q3ppJ9G4+KsAjDyJiMlenvWtKmcFDJ2zIGF7psXmt259LQFtEPtaPf3RORpKMhJ48GraP7XJGMTrMh4GlRCyWFUmD4bpHoMuqoDibSLKHFTbRszMaCQgby3kkLBQQemIS24hfLoPL+U4RrE1qRLW641ZQrKBFxKEsERhOclmg4qDZ2sHwOSZQuBAz+r5a8a9RbkYLcuVuQk7Y/j570/q32mEY8fAngIyCSWDmKwgWxn1oUSYOUxvBjJLGIF490IGJSwWPEuX3EcGaeaYixkaPO5TTuNeY0nMX1wTmR8xQOd08MLqKLKqY5sgkc7LTtoFZg0/7rX2lpZIwhFXHkw0vKI2iEeRey9/c7JPei97rq/VcwnYj/83/2t7fa8BmhzswT3G/kkWe0btGpMtVsGCkAZVewVGzgtIsIMaw3BR0PW8NucCmHle/trhlw/XsfcFmp3DwrgHnY+fM9zmB2TYD1EI/rPLgtCsF9BvB7MuHHauw75jduLqdlbWgMhSbzRByQ87vvVd3KzLFAyVgbTNgxYLrWOP8+6H3qawB7ebdSCs2V5v5NDcSAESr1AVCxRYnkNSKllfGo8E5c1zJQm4svKvED79csvzQjg31THQo48i+/iPkQX8o4sESzAR5cCHJ9xq2CN9iPTmrX0v9tERv1bIV6WxHkW5zjiyXXXrfwmc/F3T/2PWPeyRBLyOsky5NyXoyClMHc0yCu5VLq3uI9MVcak2zQX4rEjQK9dn/TbA9rsLBZvUmIat08bf0DP882uWjXF5adyDbFKyqLc3CJ1ey0II+mEuLCuFoLrx5sQa8QG8PQiDeIQBdtBJP1g4Zt3r4keoT6UxrJrKWXIfettVoKun3uIhr7w055c/B+LPm3MlCWIhchRR0+7NItHqz7Fn+O6FJjapFyAURzlXu7FWkRy2lI3AGw5IXemObiIvTcRY5hRsd3r9fR9IQHuIfaCEYe2CDxmR50LYPwG1jmAfsV2jZ0dEky83a6gZqwkig233f7jfOYJsE6KQuB0gnS2VwILhsbNPVcKnNHe0L5PgUXxjtiZ/drVuJ2JETjhM2ho7ufxyZZQfZPyynoeH2PrikHdO7l44y6MRU8bjDlQ2dNkgGlVZjOTkw22Avyo0JjTlwEf55UYVegMf5Vj7H9GLHINb9/Z5cm6hsB97c7dRksFIwgHJqs+clJ4XjaGNHAQQ8J9fQcLRKIC6TzhM2roocVVz5ZrcS4dkC+sElSgE9ebzOOxxjkZ5p+nW7xLo7pPV76PX/euqBPxgQL80PwaDhXiW4nxgATHni8ykLBdQC6LYCFEXi4QQhjPlf34jBdxWy0az4aTZrpE/0YMQ4ffPW/LfvlKVa9M+8OR1b53IZKSdZEGW96qygyJ1lYmVpX2jcDBGw/Bakb/fDa/1aTmF/V65dn5SokGGBdVavuaRz9JTsl4CMaJio95GY2EkwLjlr25mUTdoQRdqP6ZuA/Aqf3bJkv/6ZkMuT5pdM4bsURGkhluJPFhUUD6C4IVKVrMHt9EY1hSjIQ/osRQHpjZ8fVSXJKANYpcEq08LQ4OZfAJ1jmMRD0JiyAJUMFDMONwGVdXD7aI82koimxUuo0LjnloAE/mFySiQScryo/MFiSAT8zBnihPWQrQqf4USjp9dqsvCiIk+Hx3wWaGbsovEn9+ue2Urp54A5HVV5WIwKSNIqlEx8ir9OOwYsldMjYQwkRvYU23vpfNcFkpltoA3urSdx/5oCsk4Kr5vM6QYws1xdTYo/81LRXl7rgAUoMPvFRa6XxqxoLcs9gwRMo0ZXQ8jb+Tc8o8rZkeJW353xdZb1FPq6p7vYbrU33Umge4thTvrhz56CCXggjUKwaOZCZVlMmjJI8sD2K7DrSI9pgKSax6AqurTtZqEscIG96xSY/g0Eg7ImwifAkdEirWy3N4hibDrGUBwGhUu2OciVXlztiJ/fAlZiUAyCXQpTNrqfBnGfQ1JQ79fd6P+EN5h64s276a7IVdHKzIO63S49NqcSPFr8g+GwJAyGynhmlVZhd7ahTFp/5gUdW+nAdCEuozAwadnq9KYvTwWcQJVpgo4vpoUqmVkn3rs4v2ngdwJAcdFzAUYw+/OVeSn0BvJfX1dhIHh/chF2eP9hry/YqBPKiNqHhP01OXGWFniPnVPW/3s+shuSEAbxG5IVZ/zawmQ/PZ8uCiXALm2kUaxf01tlnyc9smvUad2bd5hF1oTh1W1RcJBeWOhCIaPovzCBzLhLSd4D4G0gzgXqYq8biD0hB3yo3Nl+fEFS85Nhg7NaFW9brvjdjKY6MEJeHfbxF6ZWnCGXnXIdMjNWRNJP717XKm3xUhBLmBvdSNjYHnRXv5EJLq/75d/Avnya+dpvMCAoRIWgOBohGPRkHwXnn3Mm5f/AKqnu7suIOAAGQlWiXozsR83GnLKzxfL8n3UiM4iHumlhexiq+Ge2U6V5C6YNu5AbwBzUmocdizgkpeR8DUS6G4flTqkD1KSgNaUkpj0QUeVAIulLyDZ4dqkyAcg5EVmvtK+WQoF+vd26vL7h1kxnV7w1/mUw4UsAo8iDPcSSjKiCKd9d6+CEoccMiGLmKTdMgKs1LmxoJwD9uYkjiPjezfLGFqy+xgF7x+AqJnGEDkaSi0E52I27rL7S6+tV41e9GXUYC4lGtBbE1ihnUdLbyoJuL872zX53YOsvHHOLzMAkVdt1Nto2JRXYORicUMe75ZkfS+Hco4yPHrWMPplHizP56I+GUMZA41ht/XGWswP1j3yMWQAyFale5eyYxnIHGohZ8ed2Pftnd5UZa2Pe7EEtEF8sVz0pyckAa7sR8MGasPcMolMO04wpGNq11jITzb79x+jbi1g4eWUIBNKONsoNMLQxVATF0PI9RzCcXsjKKbOY68JcbwovAxm/dE49qIVkJ24mSzLR6tu2+vh2NoZl1a/JgNluTFalWgA5RZdqK1rXef5dxqayahXzo83kIHLOkOEDhW8I4Y4t5BR/Pf3UYbus2AYyMlpqOsNhi/O1xO9JcZckkPI2wvEmVjQhSQcZgUrxtCfH1SH/84CaWBp15IPV12ytOdSMoa8hAve9UywLJfjdcggCO9X7Z7tsHv68C5IoDczQhc6rk85GBKg/fJjE3Aak8NNgHangVpTqKhNEEXAxX20GUB4swSvoCQXp9w2eXCnIw/6UGAPY9qyQuxTtz2LVh+JSrOTseTvvsrIF2tB0Gv5lCZWSohht/PhgnxrtAhAb+5DqYVZW9c+zjuv74fMZuMN6K1ml1WUgCCk0rKA93tvLSzz8YLMIlw+Pw6DRg6kDlskYEqYQKBPVg+91BtDpRvJivzmTk5urwOEHUZZpVFC5GC8FMvJy4CR8zjhKh7EZaZyQn1MTyXQuyesp8PSF+s3CcRNMM1P5ezkGsVtJdtwFGE8P0LI6m/ueZHujqSLmhKA5DPD50RKz5LlCnz1zBgihriTqSA5qCr/74OQrAGWjmFFlcaEFNTgy+WZkFxbGLU9JJXfneQxnNwn4Z1TbyNIrqEcVRoTbEogm34PGLO/WPJKMl8TsqR02k5LbzSGmyl49Gt1+fvHQdkuGMp6g3OLUgsnsmYjcmk2DrJrPcV2qvfTPF5r6zSlf4auHfI65ArCpotjTnuiV5lbaTs4j25kXPK7Nbf86oFDHiWQHHMEo9hrUbPsIJkty4ePa+i3Sx6nvFIEdqdqM901eWksJ5dHGwjx+hAmPJ1HNeJzYP/XLRehtzhQ5lQXM9wjXUm65IMVlCssi6ylagOhNwuwOwmkkn6wXJNfL7tkJeXB3qG67ANGTW6O5WVxFMlg8HBVQ/yq94U+rrsS0CHT7spXn/2JBJgAMYEZ9WWAZq+BiHgfKC0qTgONYgl7jo8TDvk3n2MfB/mOIW8VRtUhLOtQMay9VgKzWYnreW+zKL+875XfPPLY4OaKzqFdOxnz1eWd2RzAvNl79cSUkx4r9/+mR9zy6kwdzBwYF5KdVBnvi9DbEvBa/91XLmSb1sQPYxEPOjG+ftQagcwb8Garcmu9JL+4Z8rHax6wvHwdsW0rWjqDo36QEs/kZA5ZzI4BJ35uO+AhPEB96TOEg9dD6q0EkBchr04Au3K6AtDsJvSWSg9oSJjht5oU+cUdJyZYJ4CnET5V4SZSucAJHsMSgb0sEjEeV+V//9Qnn26AFqmDSZWmgp7YNeyX3jw/AvJmdfDvExzGM6diIfy3p8vy+hT1BrADRXtGvdEoLu+K/M0tp/ynu6CUAnC7atH+M53o8j8Yyt5OV+T95abe7oA9pZPkJ3aPqDTXpw25fm7EhhPscpf16bsgAe0hdkGo+pQvlgAdg8mwS16atORb0wX5HCSxCcVkBRaG2x4HePrggNmZfN9GUf2FEaS1I2mn23BmLx7Rs5+Wrbqs7yNMitKK9x475fNNt82+wf6qNNoZ5p5cGKnK28DnnEKWp3mCTO8qfXjRMfR8ZsBfdHOyKre3y/LZJgvU1cK/1BsL9u9sP2EhgeX59kxZ5lBKEgA6Qq/2c180rtZnzAJeRxbwB4+ht0cu+WrbjXuteZ+1jjnsnXudlNEVQAa+vYCsXJSOnDQp8WHX19+dnAS0QTw5WeoztZEAJz+v1wMQZpGfX8pKquSWHPbVOglL5YAUcheTa7LgRBlFWSrnACA+jv0aoMwQdq3Xjfx/zCTNIwNzM12XD5ZK8vcPDPlqB3tPSCxRNYbstxOcfqQKenWiKt8B0HjI05vygnYyo95M6G1xrAFIvKLsghy3hAxg6k2lUQYZUER9heL2PegtVygBjB2ACNBbCCgzpLPqdeMahYk+eRi+lf2a/HapKH+37ENZjCFPuK+Vu+SG3saDNXltishHDUDP8ey9H5Nyh/WBB0pAG8QDRaO/6IYEOE2MACPze1cicjcNw2ZzIDaTZ1Sux9BWs9bNIf/xjon6sIr8BISzb10MyiywSHvdGCItFkvy0YZTfvXQkI8eB2QHPILMsmRfO2k+gIyTwurNBRahB+w90k5+381jaRQnox7I2S13Ug4B2xNg6NSvSFHQw19POuT/ueWT+3sl+fH5lLy1GJFxYN32utWRmMUF1W9RG/preIUfPwohWuHsaHHW6jMh2v7oAspj5jwSA/NKv+6Rtvqr3w+WgDaIB8tGf9MlCdAjiMKje+cCaH8seFcVJzw+NXZ2domGhqv43RwmsJobBeNecAs6EIoFm3ysCLqdgF0M3qXu29cnjdMuSioe7lTkq123fLnthHchKLOA59R5ZYgQAPpyvCjfOedBRqcH3q5LucyhW+N8/rz0wAl59+PFqr0oSRedNsiCSnIUz0VPkYuZHYC3f1ozQD7ckEdIrnppoiSLYLoYBwKNl3ULXWpNb74OkISKXXD/FfYJv9wRGGf2CWDrHS5guLiLm0Ubr/Ttix6Aw3tsCLoudV+ftgcS6N7d14PO60sMrgS4n/jqFLwre/+mDtZ0l6SZwdjBpMQJbL/glg8Ren0IdJR7WyX5wWxBLs95gfsJ9gt31abdIcLLSexVWfAqShXy4jUkhRDg3c2KfPioAmiz5l4okzA6bZxUyXV4Pl6VHyyU5CbqDsdA89SvzYe+fntOhETOawg13ttzw7B1qDeUZOzkDHhkgIYDAs7Sdkneni3KVehtFCDwAZSckC6JvI/H1RsXTyzTKUJvWegNcLLy5WpFfrtsye+xh50suoBx27m0ef9Sb2Td+P4C0ISmw0ATwge6DbQEtEEcaPUNdudJEnsdiQh/eSUPQxO0991UYN2eH3UDE1oS7BG/L3lxjhGZRwjsWiwjr48k5cb5ODI1g+DZQwLHUz9kIsRh7flwZw0f7KM+bWmzIJ+sWvLZflRWAUCeyptSrDqVSkhedD1gWoO+SOTty37505smAKH7e1KlgaLeXoE33riel//ts4gs7xtSVIB1e378rFUkt+D7JRMeNlBxHrrkRnwfekvJSxcnAbvnEwPXelpVneiNaysaw0S6KHc3CvLxak0+34+hrhV6K/rgrR5db6giEiSTyg+uBeWPr/nB6qKn0uf1O4j/1locRK0NSZ85uUaDHrkxU5OflcrwCADmDYYLVlN04Cjax3KVX60DPNxy22G5/YwXZK4R+addeIvALR0PVmXUkweTgiVIApQgqJQI6k3QaOJksi8sBygAsLOEGo88ih8z+Yqk4P0kyj7ZtYBYknIBwcQnWyjW3oZnUUCoF4mlR25Ek5sMi/z0MmoOzztQW+kZiP0nFpuT9Pblubr8CRJkfrUMD3/b21F5CYVmGyzqDXIswTjlYVQTMFb3dhwyDc+TshmHxzhCvXmqMDpIwoHeGFY1YZE8SMml3lhMTwLfwhO9ZaG3ZBn4tZWA7MLYboNlxdYbkp52EOYtWkfzCluKJprcAiDtfn61Lm/Og5waNUTsh26DLwFtEAdfhwM9Anob4zG/vHs+C4MGAwQmiLWUAcOmVrj/osEzzT9XNmUlY4oLe0RkHpgM1WQaxnDcVwIdD6h5QgipYoL1AUHHZzptBBarCiYKFNTn4KYy4SKB1MgdZFRuocRgE+G2JMDBy1bTg+vEYD/fR86d9DBmog15a16wJweqJSCbDFIyBrOFJ1E68ePFjFSgN2bZUm9FvHcS9m7JhvuQWWQQZ0s+eYRFh3ub9EkiU1jITJnUWxl6wwIq7EQ4FTirXoKG0yA2pIJ96AwK6vNwU9NIQybSzA5C6ZslA7ozsT/NWlDAr7UudsR3mjzyaNIYfvccMm4vNmQu1jsowCN2W/+sAwlog9iBsPSh3ZEA94omwdD+rhSxf5STf3s7KEsIw3W6N/V87xj2RMTMDqdm4dEtO8KoFwvC8JAxAUYQG0FNjFNOlQ0kywAHpw4S44aBUoqAnZZPr7PacOLVzIQ99qSKWZWF7tNAoHn3fEP+8mYdbBIoPTiFkpHn5dXpv91I/JkeC8uPG3kJugvy7+8GAFGHPUWUMjwfcu7k3JQxowT7CKdmim554Iig7rRu6621r9jUW9M9t/Vc90JvIDKuQW+IxdZaesM795pPQm8ElpiLi/wQC5g/vdqQKeiN/dFteCSgDeLw6HJgR8JwE2mZJmOmvMVsBSnJr4EB+tGGDywLDIUefWicCOl98FW2WQcOKyjntfnqXgP9IrJIMaleFGSUOuElOu36yUEMuVFSzIadjfuwsOACowi9eW3ABertKJ5iS/K2UYTOuCBpskWcrt4iIBu5gPrZn14ReXMOegMl1kkla7XGrN9PXwLaIJ6+DnQPnkjAhzjiVNwp33da4kFtlxOM67cROtvLoa7vCEkb/SRYTutxvyWL40iguWDIjxYdIChmMf7gexjMCJ1HyNfvtsSA3tyop7yNIvwUSmlYZjHIjUX3MfA6Xpt0yvcuGvKTRYRxbZzS7i6cBllmg9x3bRAHWXtD2HcCdo/GI/JT7B1dBVTY//mZG/iSZEtA2Ou4ca9TkhenTtq91ydySMRwyNtXoxLEHtgw5WFwL3hqNCp/FqrK5fGa/B+fupGNK0DvOSWhn8BlqR/TqMt3pnPIJHXLu1djdth2mPR2AmIaqlNogzhU6hyOwTB8yAl2OuaUv3zZIReiZfndY0s+ZggV2YPHCaH2UkKcOEMIkZ5DjeHbc0V5bdYrF8c9gPYaLmPYkin1ZmKj7dyoU/7qdXACjhRtkPMvtnyoAUSJw4AsaBi1DyFx5/KoJd+dK0NvPjkPsAREh3UbcglogzjkCh7U4THhJYAswhuTyBL1oCTBbEjYV5WlBLIHgXTCcBzr2PpxjiU0pw+exQRKBi6CLf7VaZHvzztkIuZFhmT/Ft2fxL3CEDD3216dEYkgI5N6i4JceGnfDfooJ9gujre3eBJ9POgczI8hn+EkvNxFcHd+a1bkrRkkfMW94kOJjm7DLwFtEIdfxwM9Qq7Wp8H6QKi36xNF+WDNIf+04pSvNoEYU3IAJo31g6dvGOkNOmGeDdRSBmDA56LwCoGa852LPrk0acJAhuys1oFWRoednxvxgf+QegOt0ppTPlh1yi3orYAsVOqNGcCnvaCB2pAQ1NRbECU4RAx6dy4PzNYAPF0TIVPWhg7+Pm+Hqjuzh2uDeGZVPzgDd8HlCpou8bpM+b7PiWy/Osh38/IFiu5v73oAIdbENj3NPUZWTUS8NbkSz8qrs/BsZ0yZjwZRwO5+sl/IqfdsNTf0FgLWmweulz/glEtjJE0G7dcOWCVQeE9w8NM2iojMA4/UkqtANnpt3pSrUx6Zj4VsAHo/FjaDmP17tu6ykx2tNognK89TO9tpGoNeDNreV0TYahoRxxF/Q2aDLpnDXtUFUBLd364BsNmSPQBFJ1CQT0Lebu8z0iMkliWNYNzIo2QEmZZxQ64iS/bapFvmRmDA0d+zPqGyXtCHwktsn8oIgBDmQijTGHHIxT3obacK9J+qTQmVKoMui2AMXXYZqTciBIW9RC4qQG+gI4POrsTcIGVGXWWcCDiAi+OBup05CWiDeOZUPvgDJnTX5EgQCDcOeX22KrspS75cz4O41iVfJk3gY4LnrlxHKBWF9g0X6uGcdk3cUfccGba1X0iqcAvKClAkbhhN5oeLsZq8FAb25qxfFmfjMJJRhNhQ8I+XnlKfvdcIlTczCt3FHfLt+abePluB3oBjehcoN7tZUkTVmnqjpBtNtCIu9o5iJ22dwXPn3iAL+1t6m47AIENvN8NpeWk+KAuTUegtBtCGpt6e7bX+11mSgDaIZ0nbQzRWG6kEBoqJNx7sVYWBJ3ljAdBfwMXcShZlZTstj3YKslWdlN2yX/YB/n2UIv+WRwF0ORtbc9IsAEosLecmgvAuAhJDpX3YPYmsREKKuW3kmyES84kOhbLkMsEJvdkh8NGm3l65iGQbYIxuIVNqZSsFvZVkW2Zkt+AFm4lgcdMEVuikMzSGgD21YfomgIk66cnJtC8j56ciwLb1g5nCKyH3BEK6LniMrjO3v9uJLM/SsdogniVtD+FY6YkRnJsvAInYLQ1IrUtRUzbHARZdd0sSSRwgPMCrBgBocPmB6t0CV1MF2TgEhibjPT0QTqJu0E+4sSHIsJkPMVGG+4IwuhEYxBG+AB4wapjIGDVghHEcSigQhGteWP9fWQL0ol2QJUG6oSYgCQFHFmHLRehta9Ih+/DskwBWp94yxSpowqpgRGnqqwLdUW+E2rP1hnMZcANd0J0XgN8m9BYAWEAQixRQLNp6i0OfY17oDWHtIPahDRyn9aasrjNzoDaIZ0bVZ2egkaApfF1E2nyrkdm+XCEItCUpoH/nQd+ezZfAblFBiK5uT66cUJtGkJOmV+KwgvEwDSONXqsBcVr40u0kJUADGQXdE19X5r85cx1x7hL0lgZ4dwro3wXqrVDGwqYiNWwU0yRyEeODAWRpRChgQm8O6M2AcXxabyGclC/dtAQOloA2iAfLRn8zRBJgiJV7j7FQABRCPniFBIAmmHfTGNpDxTEuvBxIs+d+Ej1FYqzqdnoSYHILk5NGYPS4yKlxXxg6q+O9ua/YaIZhoTNWRxDpyMCx1J1uWgKdSkAbxE4lpo8fWAmwaJwRTvLo6TYYEqBB5CKFtYDDDWkwGPoY9l7qZdSwa1iPT0tAS0BLQEtASQLaICqJSR+kJaAloCWgJTDsEtAGcdg1rMenJaAloCWgJaAkAW0QlcSkD9IS0BLQEtASGHYJaIM47BrW49MS0BLQEtASUJKANohKYtIHaQloCWgJaAkMuwS0QRx2DevxaQloCWgJaAkoSUDXISqJSR80DBJgIbcN94U/mrBfKO62P3wyOhtrE3ibLM7HR/Y7/+Y/dDs1CbQg2vjOanxbZbbiml2y1WPrzv6frTcCMeimJdCpBLRB7FRi+viBlAAnU+JfFkoWQL4rUgY2ZrFs2bimVSCfcJYlLqoH2JpeoNOYgAILAb4t5PfYuKYDOegh6LStN/B5UVfFiiUVvIhFW8FnRBtiswEXALbgdhMbFTim4HfyQ3eEdNNNS6ATCWiD2Im09LEDIYESJkwbqxSgQ/Aa/AAAP8FJREFU0IWGT4o1txSthuRLdckUapLL12yw6EKJgNHAxLRJ+Br2xOr1NGAAwZQAYOhwsAa4sAYYNRoCIgsBoYb4XVW8ysA6NezJl1Bhuh1fAsSatWDkiC1LCqiGOyBVAHxXqg38uw4MU7zKNRjDmpSeALQ3DWJTbx7qDToi7mwwUId+GoDqawDGDYsc2EVnoyyGWNCrB8Debhv55vi91mcYNglogzhsGj2D42lG0ho252Gj7pCdVFGW1xNyez0rj6152SgEZQtce+kCJtiaCQmZzVAp/rLDcE/LrBV6w2dwGG2vMWjWZQK40HPgX5z3Z+W8LyGX52JgTghigjVxHCZl/k6H6Z6WZNu/W3rjOwHWE+mCrG4lZG0vJ9XQouSgqzSonwoVA/ilbjjxoK6wQ6YMmqI9ebPj22DFsMmlbP3hLyjED4MYNRsSB0tJoJ6RUCMl81MjEgsHbUYMHGqHw7XeKDvdKAFtEPV9MNASYBg0na/I8k5R7u25ZCkbkt20R/ZzcXiDYSnWvfAQReAMImQqNunsswPmtHhw47dgG8KkLLKdbcgtl08C7jGJPvKAAsolC5GKLAb35fy4F+S3YRtcWk+wB8uz9Q31lgNrxWaqLHtFt6SqfujRlGxxFLKOSj1jwENsyp7vDZAFf9Oe/huftgwjD2j9jWgqI6pwJgXrI3E3gvAQPXK/7JUYaLtiZkWijiS4EX1gxwgi3KrDq9/I9+z+pQ1iH+qejzsiPcrJHK0HH+QNZ6LRm8hjL3AXHt9GRmRlry73t0WWEg15DKOVK7lhxE7m1qZIaRD5IsEwoMHtFz3C0K7IVKgqFwINWdxvyMXJmkwESiASdoOA1o09LKf2GimyJ60KI8h9wHzVkGSxIXtpkY1kXfZK4EKEfIsWPMEG4tVsWIAct4EdSvgqWjwT2ILxcsDjDIJ0OGxUBbzBMo1/TyAMG3SXJOp3g0cR4VS990iBncl2MrPGmRRd9wZNg2g4quLmH9J+5Wrhoc9gsuZqeFgbDVMDFh9zF0KfNbCq5+X3m6Z8tGHK/R0v9pc8mPwczbBpDxYGXHxk4HnkSy55uDcq72+KjGHP8bXRrLx13i03ZgMwih4xwcnn5urmjLaW3ujlZeGqb+0XZK3gl/WsRzazXoRKvTCCdOwcX4exuykq9gd0mJKveGQblNJrII8OJyoybqTl0qRPZkcQAUBUnYsZcjTqdrYkoA1iH+rbUbfEV14To0ImdvKJH96w8JY0DGIJiSOcqIcx5bxWq0kehL6fbbvl9+su+WLDjxCm0/Y08mBWr8EY9rrZe192KA/XxySLHB4wvIfkdsoli6t1eXMmLa/MmTITN89sEketWrUJfTfzHnmcdsravl+yFpKcIKtStTdG8Pn7gkaRuquLU8AXjUWWW7LliCRwX02kGzIfysj8KMiKg157D7n3d9bzPdb/7pUEtEHslaQ7uI7LgSw5V0lMxdANIog2G3wWT3eh6LDTzodlH4sTVxLjWktacmuzIZ8gNHpr24F/I2cQkyont35o1EGt7sSixJQEQnKbmarswWBv5Bxyc7Yul+MlCZ+xEo4MNl73slU7rL2OUPZW3iX7RQ/k1A8aa/aBC8hyzSVlJOzk81jQoLwjXXBKFn2cRchlxFfD82ToEo7+UVlXe6INYlfFe7STM5U/FvIhdVydEpWTTCKTx8tpZ9ANQ5iuilhaBt7frc2KvPegIr9aDsge9g0ZGn5SOng0AXf5V9y3ShTc8sFqUO4nHXJ7x5I/u1yQy5Pw9yMOhFFdyvvDXe7qiZ+eWbv2Aq3mkBWEIu/vVGU5G5Cc5bL382iA+rWx3xlktOarbklYDtnOVORKrCjTI9hz9KN8w61LbPpVdyfVL20QT0qSJ3ge7l+MRAIoCldXD+u4thM52Uo4ZHIkZO+BnGCXen6qKkKku8i0+M/3XfIBMjrvIVS6j5U7jU0/T6otQbGPFRgFVBDIhxW3PE4F5QfzRXnngiU350OokRvOyZV6SxbqcnvXLcsJL8LaHmT5Om0j2ce2sKU2O+LAvWhuQZQR2k0UTLmQK8ilMUvOT6L2RrehloD6jDvUYuivwdG7G4sFUBTusLNNObm2m0wYWtwu+2WnxMSSwZ1s6xhsvoASioTIR+tu+c1yA0krTjuM1U4G/aXFZm+YnZpCGDtTQvZkDSg52DdjOO6lqYaMBphJPBw7VPYeb7Ek2zmnrKTdsrQvtjffzPDsR80c3icuvPIMgddQ/oF9UAv7jXWocDLUQH3j8OjtcCmcvW+1QexDnTPtO46QaQwPnxcPH2voGnhAD2tMENix4rKFUE/1mZqtw37VX9/VYAwJ0fVgKy+/XPLI3z7wwtuAp4XxD3rjouZewi8JJN/slvEPFPO/NoMMR2Q0DnoSVA3x6wL0toHN01sJU5YyXjuTk2Me5MbuV2EUt0oBKcHAF7DqfGO2IZNBFHDguRx0vQ2ybrrVd20QuyXZY5yXPoOT+4hA2ZiK1GU1CaPQziDi6d1AXddj1HWVKoAbAzwVsTkHqaVR6Hd/Myf/91d++XzLkH0kOZxkAsYz0njmHy+Q0lOT+VN/vuDAzj5Ko1TjkxVMrjCMW5ma/NnVOtL8jYHOQs3kiqgFLckXewEkznjszM1uGMN2Kmtp4iT11TonSzUeos6Vi7Pr4zW5PArcHGD8Ddoz1hqPfn+xBLRBfLFcTv1TPvxRsySzgbJspf2oUz68HpEhU06y26mKPN4qiDkTwh4ki5H7v9HDSMEYfrxqyS/veeWTTUMSyEhkuPG4jWsCiiHqq0vUXZSw15IQsEn9phdYpG4kSrjEC7BL8lsQ5DsPLM0Kih1ZQJ4rWEjqcUoKNWvpalDykO9x+8QSGXq9t7eaHoYLIdPvnauhmL8xcJmM1BuN4cO9qtzd9cgGjWG1uV94EnojfqzPXRNPoyhe1OVi3SA+YJF6sNgzoDeiy9BLI+pNmcDfCG2WANhAAPdSHfcPIPrKDp9d3nFcA80QKo3iGhadgFuwyzYujFQlZLoGejFzXD0N2++1QexjjcY9FZkP5uRzlyn5NgaRw2hmmtbk1gbQUgDgGAKGY7+3GjqdxUbTrfWS/MOSW/5+2Y9kBtYVHr3nmC9RslIF+ggmLGz4jEecMgNYklmzLOP+sowFHAhHAwTa58QE67IBobnSt1DHmco1UXAysH4JuHPbMMyb2ANc42IjDcMNYPACPPACMhGrTBY5gjvCyTkFo/j5pgPeFPpg1OUNJ/BSw86BCcNxz5BhUnqGNIYPMli0IRmFC7OjNC4AERQBvFrVBqVgqUPU75IoFi8+AHMHnRUJeh0SAuyaz0SmLkC8vR6HLS90A4sXgn5bkkWtahpGOgf9FPDM5FFOkS6xr4icAB2gCiSc2hFBADg0GsWVFJO7sJ3hqslstC5hHynCVP3Xo0hH/6ZXEtAGsVeSPsJ14nj4F8fgwTxWf9gSFa98tj8qr5UNmcET3O/PKdkNHm7l5G/umvLhugfh3ibaTKfiooQ4VgJtjyEZ6VKkIC/Hk3JjIY6s2wDCki7xOGJiwPAQttLthPGBEXQ9eef1DPztcftQ0mHCIGPyhFUmCpAFb6OEyX47WZGlzYJ8vl6VW8mo7OQNeJLMeoUh6LDDPB5zN8oSHPIfbjnt6/wpwqceZJ8Owt5UHgk03DNkmJSe4VGNYevOdrsaEoHBizmzMmak5OLsuERDJrxCA+YrBtOGXXIYzKbempB4rXClDx5+S29jsSDYS+p2YlndQTB3eOTZMvqKsG6qJolaHF4sWTSYqNa6urrybL3BAG9keO+gVzjFNW/d/rvfnzX1UZ7dI7VB7GPdx4GUcX7SgZWyEyUHTONv39lsGQDXCaes7pcBPA0KI+JQ9WljqOshMED/dskrX2wBkBve2FFCWwyLBhAWnQlX5PpIQS5OBTF2IMQEIgDg9koQngYNH4NdhzWu8hmKe1Fjfd0YYnaTQb+cH6vJt1Bw/2C3LHe2qsio9Emu0qyze9FvD/qMXjDD3Le34PkASzPiKMnr58MSCyI22KeNcmBpBbNJmUBj7xkiTHoUz5AGhJVFUQ88d18F9X5+/A3oNBjH0YhHvF7qjUbr8GmKerO5D1+gOmYtBw0PQuXIEI0hxAtDuJkqYRsCxhFIUGUsdjq953g8oumynkZtYqMAfFQAvE9HEIJ/QQf6VI+6Wy+WwOF32ot/oz/tkQRIdDoVM2Q6VJadTAMoH+0fOIaPtnHsnS1LFqIuuYHU/n5snEC3MnWUVrjkHx8boGdCyFLB4D89Fk6oXlcd9D41OT/qktdQyvDOTEUWUAAfDhD2jq+TaZx0qQ++5sdgFLCptLxryUfhqry3huJzFODv5p3IkkXomm6EYuPkyuShz1aBXWuVJI60U68HYUF7X1PxJD08jEacdYYrGZRWIJuU0Gf8rJNGE0dPPWBw79Qts8G6zAUtmWKiipdx/pOL9dOLJAciX5M05liEbWA/edlAuDeHRRj2iHMI0fO56UBtto5JTbWM/dNamXrzy2hYF+93ch/047Guf4nWjx3TfWpKoIIHeHdvD+E5sAMUFZNkMHmXUDQVDhjy8vThXtFpyZmG4N/fcsh/ueeQRwATIAxbp417hXPwCn9+MSv/4jVDfnjZB45Cv03cS2PZrUbjSDShCKDYLox5YIgticD2ZlGAT0++U8POfhbJAFExJe7F5IpzxaE7XqffGvFHP8Pe5z3UhhKirlPviuMh4MuItyzXohn59jmPXJkysadrIuzp7uqYW3ojufMEPNBpMJWwfKICLxFR1SN5uRZ2PStg0fA78uLHQobn1m1wJaA9xD7XHZ+v1xY8chfFzndQC6USmmJG3Ao8lq82qnJ/uiQzIyYe1vbeZa9EkYJbcX+7KB8+NrHCbmaTdrI6Z1ST9XvfminLW3NVuTkdkPkRAxl/NCC9GycBFILYm/S6vPI20YXg6SyEijagwEqK7BvqEq1hHzJddsuvIZMgPJixYBHADCAftkO96ufp5pHEJl3ZA/ckEGgIodepMaQhJGnvuTDC+dGazERDMhqE/Gxal17qrbl/zP64sWcbBgF0GCk4a9gLTSKjWOUZa8nZBgjHYuYOQMt9Zk1CHmR4+84umHtLLoP6rg1in2vOi6f20qRfFjZcEl5rZrm1C1EhG96mJrq/25D3lmvyE29NzCgy8vpgcrVDVqmq/OpeFXBsIPdVCAM/rSIv7tjRYANGsCE/vdCQb806QfDqe7JH+PSRvfmbXocH9WjngHdJ+qc4MkZ9CAW+v1qTNWQjdsLoUIH3dXfXizBiRZjSfxMZltwbPe3GxQpZKwjUfX+32oRjQ4hRtXGZwkUM2etnw3W5OlKX2Qju56Cvqx7hYf1j4pIXepsAXHDQg5IOPDTGPpJjUBuaBKUXnzHVRZoFiL6NvFdGsDcZ99dlBjpjxqxugycBHTLtc51xwmWd3C6SGLbAGEAYMNWQXAnJDiTRvTRSkxGUGhCc+DTDcExwSKOc4SMYi//rcx+8DDcmHrWwoO37YZKZjIi8udCQ/+G1utyYNiQCzkGCGKidpbvKtjFoQ5hkgTAUhFHcANB60S4hUe8dva4KoPdqDrdcHkOyDTIvT1NnlBh5KDNIiX2ICMVXe2CFQJYmM2tVWktvyJeRRSwa3pzFvmGUe3osau8Pq0FPn/dRCNmiuCPhqTezflXHaMuI1hNZrU6XW8aR5YwS11PXm4p+9DHPSkAbxGfl0Xf/4jYSV7M1EO5VkM12P+FChpvaZMQwHI2iYQAiDDV3k3ad2+kNkSUMn2w05B+XnfL5BljtWbem2B1OMGPAVv7xYl3+5GpDLo+D3ZxZiH1iDDkM6spAfwLYS4r6YBSROZqscK9NPbxIedDjsJDJOe9PC5JlUTKiznqiKM6ODqPeVlIOO3t5M4f6S8VFDC8CYg+hMbyKzNxr4w0ZR/2nFx/2izFkH7ng4GKGoVvTTaNYxjPmRK2pS/n+5HlsgmroLeRM23in9EB1GywJYJrRbRAkMIsMtpcRJvz/VhA2Re0bwDjaNoZ9WEj84QomaOxvTPiRyYfV+WkwLbCmL5WvymcbTpRYOGwoOtW9GobbGCb97vmG/PCiyCtIFDJO2ds9TPh+GOqFOAq3HRV4UygYxwLm4R4NyWG/+uY7bNXJerIhv1tBBm0I+4nRb77r9V8McefAdE9yX/IZcgyqixju0TFMejEugDoTmcY9bDATqk+bD6uuCSAGuRoWFms17CU6kciG8KnigIk5vFdoyCOEXiPAOw3hpbZ07VOBnMFu9UfM4gwKvtMhh7GZdG48JDemnLZxUH3QaBQfgTnitw/L8t69jOznqig8V3zCO+3kIccXQGK4spNDog+g5RSTg3g6lqGFMalen2zIf/9qTV6ZYa1gd7MRDxmG8lceTK4zo0H52RWn/OllC0lNLN5Wl3veMuT9jZjcT/lQ99foKNFDuZMKBxLCbnM/B6Z7C2U/nWWVMoGGe4avTVVlCtGJfjaGLVF4AAQwHg/KSyjduTRSgcdYa1O92vpl872M7O61Ugxwf148Z4oroGdPof91ihLQIdNTFH4nl2ZYBwQ0SPIG6gbqDNfTHYThMA8XkbCRQtF+BFieYexLhXy9XalvZ0X+YdmFkKkLHIFq6zCGIJlE8+3ZCgh2Lbk+hb0nfDAISC5csFBnJsKnHtRKWsUckjXAxI7SDJVG75kJOSOenEybWZTQeO2wnspvT/KYJPas7++7ZD0L4lzFUD3HTu9wMVaW62NVe8+QYdLT3gtVkQvvOd5fHmwz8HkrFQpNZBuUZqg0Lnm4CDUbGVTBFgAKwUxhSkS3QZCA2sw0CCM5A330A7vx2rjIDZCVTgdLHXkcmZJb7u555e+XnPL7FcsGAafn0YvGWsotkAB+CtDuPYTdVBsNyblYSd6YqcmryCblnuEgGMPW+Di5ss/nUBLys2tO7HuiTAMZiCrzI514wsI92GPdX5MCrHXeXr0TSShZxOILJL8F7EWrNhbdj6Ke8hxKK2aBlsQQ/SAYw9b4qLdm+NQtVyZcSJKBgVNbx9ilKAyd7gBoYhuvHj1ira7r92NKQP0uP+aF9M+PLwFu/BPJ5BWEoF6bzIEJoI6JRu28NH1ZZM/94yNT/vauAxREBZDuVrEn1F2jSKivbL4iq3tllFkgWxFhN5VGo0FWirdni/L6rANQXn47gUblt/12TAxF9t+5HJPX5j2ovQOrRQdP3Wo+IB8ngL+JJI+66qbrCQiAl8oBV24vXbGzmznJqzR7EYAM20uRnMw8Ka1owuap/Lq/jokAGP7SdBg1rm4kN6k/J8RITdVDsluNIdzN2mH13/aXBM5ebxTXPWdPMP06YgMp4tdnApKrmXIPiQ4r4EqEvVFqfC4thOHINVhEJmOhkpVvLfgARYZ6MKUzdH4Q7e0jYn5uWvB4PJjU1TxE1t+dG3XCkITkHADOBznsRCPhxv/eApDAPjzlzbTZzLBVmCdTBSD57OE3wHcLG8Rl7U3GKXYtgfmJ8Dz4Na2aV2kPk/cQsUkJx3ZjPmIX3Q+SZ/j83c2+e90NuQAggRxQeXbyppIc+JxlAVK/i7rNPeC7TSBV2CQkjm59L4EO1qp9P5Yz0UE+pHGAP1+fNOSdcxUQCNcENlK50UAlUQbwFYziL+655Fd3S3JrJQvmBSTbdGEly+s9TDFcC4grGGPVNhWy5NtTRTkfd9v7neq/VL1C749biDvl5pRL5pB1iTI8pUZWhkSuJnfXC9h7VUgtVjpr+4N4K+wV3bJXAl0S/lZtBOqeQTh/NOSx+SZVf9evxyEog3IfBzJkgUSE8hGWkbRrFBdrhTOgnVoHvl1O1b1ud2L9fdcloA1i10V88hegURwNNOTnlypycwJJMoD66sQo8oHNoz7ud2sB+Y9f1eU/fZGVpR0LHH01GC2km59Ql2lgy+AYXM2Z8igbBBdd+9sNQ7MnncV4Rd6ZI6Hv8GTqkbD53JhXXp0GVqlfXcqgi5QvNsEwAe9S/VdHVyL1xjKZdNUv2VoA12y/HOERpHAia8U8YOdc2EcchsY96yCg2CZQrrQA7kMfPEbVVgRv5ho87HxZ/Teq59bHdUcC7Weo7lxXn/WYEuCm//xYUL4PtvW3Zgr2ZNTJKekBsAB8OROU//I4Kv/r713y67sF2UnmbT65Ts510LGsYdtL58G+AeJWZCuqZKFz7xBZ73JhwieLM9Gh8DJa8uFCZiJQk+/MlpCoAZra9nbG/mm55pb72ZgkyifH3tHq04veLbg3iVQOC6SqjbTDe6VdoydFPkNSOE2NRmzewna/GZTvqbcI4N0uhAsICWPfXrHjlngk1YhJCeDfug2GBPQe4mDo6Q96yT01H0oQbsx4kHBRgfeQlQdJn2RADNxJK4JZfCvrRllGA2FTF1a0ltyYSMvieJMRwOs9+p5VEbWHyxv7MIphGF+AJit0zHAiISOckfMgsAuYIWWjoXDqvjgkaDrlwigWMzEnCrgFUHxMuji8a1y4bIGqaDfXACs8cDcB5cdJulutUCrL6lZCsoVRhEvV7icy3ZPcN+IxcV/2KefYMQRGJoupiGFDIGaxZ08+xDZqQ8KaU9IWMnTLdamAzsXTx6AExxDNUP1UG8QBVifnxJm4KW9goy6ZztkEwvdJpYSaKZUwV2voRB9J5B3yQcEEjyKAs+MJ+cFlU16eBykusEMJRWYgdZ7Zgp1MwwUwGj/YLkgqq+7ZMGX/ZjyDsBsmVQew2oaseQC7MwL4sgsjltzbqQLc3K0wsQoygsGbmClLGkbRiPoREehEE50JsQi9re3lkHSlDpFjOKpguk9LEGFT3DGdXXAAjqYxi4CZYxRoT3u5OhaQ0Fsbi4g1ph0uJX5vHgsfbRD7X9HaIPa/jtr2cCLqlZ+/OoLwVlKqwDt9kEO6t2Ih8dMnZwJMxvLKR3vjch/ZjQsPLXltbEfeAP3UxakAOOtQ+qBSRPfkpGUxZb2+IFlQMrWZO+xf8NSEPbt2bkxmgVXavSn/6VH3/m+3oyYXfLuy4EPRu2McyUztR0r57SCMuYa93giKGVmC063WcAekGlqUegbeoUIGs6038JRdnB2zme671a/TPi+C/hKqbYuv7hFHA0jlChg21FsilZFdYNLGwsO3UDhtnZz09bVBPGmJnsL5yGIxDsLT719hGhzcPYBnr6Icg5iYnTaGeXJ44AsZ1KFhVbuf88l9TIzzm06Zi4GpIIA08gD5+twSRG0EwawPamWAI28XTSB9qJhDGENEZydRyD0e9SFcevB5D7reoHxO725h1CuzwDt1rCj2GiJMACdzM1OXy8hgVPe5Fc//1GFVlMbk6iaSoJ768JA/WbQe9bskCpJfLxY0w9rolJNYeKMIeLYy/qEgH5avZErN17DKZZjGpQ3ikGjTjWX6tbmguFDMXsKz+t4DS1awR1UAeelRGr3FbMXAKwo8TRTJrwOcOVK3a7IuxmuyMOKRiZiBDDzAXAGjEzS/NnWO00HMzmZodY9oHRm3lJDRqtJC4G1kJl/A60URfnuv6elzsvi5CqaBChJCasje4a/ZD2KK2v05gT23Gs5P9BY7ExfXczldCIO5gK3a2Z4eGTom4wEkoKD8AuhDIDKBl/j0aF78d6bslR0kJ5HF5DithgxSyogvUju1Gv8izm0G0YE0yi1YOqDSfMD7jHoAZg4c0E4iCCrn7qdjyNAxHg9JvIAtBDwTuB3ahk2FjDN1rxSfknM/jUn35VkJaIP4rDwG+l8uTPrnRxzylzdhVOoZ+TW8vVv7UUx86jRLTwugNVVyr4SsGcvYn1xPBuR3MI4msB6DYKgnC8VEAKUfksTOUUr8zrKwvIBJPysZU3bTEzAgigYRdEnzvryYToaj1JN5OIlb2AhNwaXd3E1hv6ZsQ7yFAj6ZRMZjKGDa7BhHhX2jsa3hGjlwAu4hbLmbzNllCcSpHI2HZTQahDEgrNzT0jv4b/bDZ3qBOkQ6JDBbYGJVYS/JNwKSxguVpwef/IBvqEvqkXB9RVwsWyxBThWpItmDXgwbvy8ioWYdzPG50oRSmQx/52kUxQ+MXScyKlF8wY+GsjGRyWeaEkYgBoBRYmFft60Xjd/UPSGp4XnRrf8lMLx3b//L/sR7aD+wcAhnIg754ZUADFZFwo/AMLHtkxSwTJvT3tEuS8BiGtYSJzwYRz7epGVaT4P3D0k3XgTxsLMiHgeSzZGAgHlAcmBsyMI7VF0ck1R3GiFZLzBMVVsZE3oSeHCrAJ/exCuRDkqlgtmKk1feLXGMexYM9NMhZEFiD5TeXKctg5TCtb2CbOQMZHr6gFoCAl8MyovzRxA+m8yLzMOznQyCS0/RW6S3EYBXNYrf7ObaG0TqjsS8aYTqqItOGg16CYZuB4AMGzkXCv3B9Yds5Ap0Q2/xm/sCCwvsIedwnU64Kr1IqAlgIeRCdGDYG/VmgsUjgEhMukQOxMNHTNmW627QnWmDeLik+uNbbRD7Qw8n2gvuKV4FvFvIB3YLMwcWb0vu7gKhBtxuTOGnJ3DcxlMwpGZhnzFTpAeI4kH7dfQz+1HHNhEkO4TaOTiZZ/KWLO1W5M4+ykcKXjBEfONZgo5QTPRvL1uUMqh8DIT0wgjxMmSp0mxDgozLzVRFPl2ryHqJxsIHA8+xoiH13sD5N+EplMCi64ZBGA0hhKrYf9NZkRGcwHBwR7D9o0iw7wwm4U6QY1hkzzDvRromSwihL6XA8QeAdaum2El7oIf/j6g7Qa8TUYHDjxuWb12NinjqZSTWUG9t5IgHBZUyuC+HZfTDPY72T+Fwj3+oRzeJ7NMfX3fLVDAp/3nJkl8uhwSQmMp7Q70Wjg81jyOxgO1ltbt2M7xXko1UTT7dxbhQQwnb9UzjMQxFrgAppwSeuqgfJdLY7/T71VJSCHxO6K0723U7c9cC0s7zawmyydPDY8Yhk1G+izCyqkH01NLwMB+Lu3YBv29f4gBqQrv+TdXjZq+475lFgf0n2155lHQA4P1kGRjo9/hMD+ipmmU5vOawt1ohIVZiB/cC9OZ8sjg6YNCthePz9+YBh+uPT1kC2iCesgK6eXkmOPiQ9bc4zWSbukzHq/LbVbfc2XHIDrJI+615UOsY9CGhRsHV4L7XNjy3R3tVTPJNsOwXjac5ITFJBJiqOyUbQ3RB0SAyRLxZQFYhPEALxu55Y9i6Hj02FtivJWuyGymLO2qIH0aiXfPCk48hW9fYh2uFMHS7Ro+c3kYnHn4S+KdLm0QLCgGurzNc0nb9aX3PELkPCwGGE89CYwSGvJwuYvMedFM8JQiGVduFVp86XP95ihLQBvEUhd+LSzOBIxr0yU2zCoBiZAMGAA7ur8qtDWBjInmiAFR+1WzCbveX+3sBTKwqGaY0CvtIp91BRiT3Zw4zEpyzykR7yTtlhunyio0JE/tljyRhrNrNewyJJYEFu72fAYRZAAsR7Ki2uZThwnhRv6cyXnaZhpf7h+368vTwsuj7WhqhVrzTm+1G476pyZBpuwF34+KncE439Eb2CifuKRVl0KPvxKs/hSHpSz6RgDaIZ+RWcOEhHgE/3R8hQ+4qgLO/GCnJLx+75UHCaYdRqzAqfGgPMyzdFpXBlTeK2tRS9x1SdQEwHMgoDZUCaYdTLHdEapCDSuP+IbNXuW+nuv/DvbpEMiu5qFtGwHvYTD1SuVr3jqk6kPLvdEsd4+9W40LGi/KRQabo6pZs9HkHSwLaIA6Wvo7cW2agurGgJWP7wqhpUyrNTKAsY6MsnyPv//aeicJvF9gpjnyJY/+QfexkUnVgkndgT1Ct8dysF1Q3DLbH4+AqQe0KXx/V6fFf/7Abf2Dfs42netyr2no7I97hcWWlf9/fEtAGsb/105Xe+RDumcFrCqUCM8jqnAOn4hz2FR+C1X4TSSpJsCow+YJcfL30GKvYaCmWa0Imj3aGkfMvSzy8yOxEGgvkdPisz3QYE8cbDnqIPP7wxkme10BEU0xQ/hQVsgTd8HAjQZDBetqfn1e36xsRA+1mOA0BcXHXKyyIwRXVvOPDJfOH35LVhAspgo6fhbBpK3rQV+ueP1SL/uQIEtAG8QhCG5afMAlidsSUyZgp311syBI2mz5fr8hnSa8s7TnB+A30FxiCKlwM4m2Svqmbk0ARFjgJKgEjGgD6TbvJG/WPrpJEgJLixrHEbj2obzRsBA2PGnkAB5CKR81gESwnajYk6kMdH1B3Djo/7wc3PMkAwoaTI2FkXHphTA830PwNs1jJF/k0Wgw/P6jxlDxr+zN/cwYvsnVCYKEwJIY+QUaHDeKbn3X0Vxnprznsn3rcPpT4tNNbR6fuy4NrEKLF+k1FYXaqs74c9BnplDaIZ0TRBw2T+3Usy2Pt36XpkIzH6vJ62S3baUC/Jcpgq6jIaiGAoncPGDGaJRuK88BBlzzwc1LkZAHAOhJuX99Fg0NDXmjUZQ9IODssbj/Ai/PhLh8Hw8TiZEDGwuoTNkluZwJFSYLMdy/vt1FJDhp7FPWEc/6yxEMB8SpkmFIIVZipbM2vjDyDxEYb71UVEYfXiAcNuQJg9r2aU8qHyIjHHrVVsGoqwkWsA/+0S07oUbvWld81HB6pOX0IReNeUlhgsAwHQQ/dBkACWk0DoKRedJEGhpBrAHORGVxwMe6UKyNOuTwKdBNkZyJzH6UaNcCjVVAMXwa0V1Uqzohd38dSAIZXETmz08uPGgIs4SSpTEGs0RCyNA8fNVfdQcQzZ5C8cqUEMDMAgu6AwqqIYumW0SJyiukoyRQyaxfHPDIJ1nNmsao2QuGNBR1yAditOaskiZLHRt5BVNe+BhcSRNWJGJYsIOx8acRl90mlbIR9KINrMN2IwtC2L9Hg8UcxiH6GxuMOuVQCxixYNraxT5xHotBRdcR+PN1oD0oo9iSsXQ0QdorO99OnGLi/Gy4voNgi0qi0nz55t3GxqQo2MXDCGLIOt9fokA1YD6e9BPgQ+wE/MsfXWHMRTFSYIohOV7fzsrKdlFVAmSUMnyRAgJrME80fYOBI7WdWpl1zhZmS72TcUJ18i0ULFEd5uUzLqtC4XxVHOPPViaq44f6wLmwXBpHXxVf2/uIowoVXQcZ7fSJi12SqhDJbl+Y+ZiTol/Mwqj5nDqwfTlmDp5xEzSHHRGKHGEKq54NFWZzwysxIwL5u6/ft3ksNE56bR4VhyT4VbBvCsqgFV7fpNipPCJm7N8cQLgbbuzvhgrePUO0B3jRPzfIOG9Go3QCefF+AQSSOLMHCz0Kru3xSAxEyIFwhrDYjhkBtDxH3im79LwFtEPtfR6fWQ3vexf/47sCGGovNF6ZiMjESlJuA3rAcfhSsI/kG9Vg0QnzRUNBDw3+AVBP5X96vAzuz+Vm7gWQtp6zD4LBmULXRaAV8Hrm+EJNz00ghQX94bbvPgEMzHHHgTiLhA8b9qIXjfpx/Ziws0ZhbXkbo0XqCnUZODwNyMd0h8QNUgEa4kwZnG0g7TTSddr/jqf0wiASVVkSe+/qUtvcPoPNLZH0H/nYGyDUMcdKA2bwkT/WbdF5bwGh9f02d7aIEGLi85YYhVc/g/bpzA/gHoG2bOKbtjCHGRtGSHosv3fpfAlpN/a+jvughJ1Xy+AVhHPhSaQGAII+CEzUL71GlnCNb9cpqKQIwZLWkF/bB7hfq4GJgMyfXwrON01Gb2OuzP3jhvxgC5WIA0eQn7SkLYk956v3lCYgvSoO0n0XhP0KYig6xBN1liYHv0oWFSHOqfdKdNm9NGQGIHE97CKDUoz4YdRowGEQHFhRPj4YLDAPMDF/sND1+LnLaNcsBzkvsp9G8DnNjEk2xVEECkQNhZy4AVEbbEKNRxovHfnMHqfxSH9N7CWiD2HuZn5krMpFgPARORIboFOobs1VTVgqYXIGew8ladS9u0ARKpozdVEm2kyz8B52TIhNCGIk7Yx4LeStwE49ofGjwPAA5J9zaQc2PfdaIWbfDqioGsQxw8gLYToiEQzADXmMYGxcy+wCKT4IxhOTXDUQjVJqnURAvwybaIKqI61SPGe4l3amKVl/cCySA6UgTDEBl6ijBEG4BY3UbwKA5bkYOaSMn4fJeRR4nkJmp5GVAEBBg3AeKqVADnrrqj14sQIZ26TUe9GICSNwPw3mwzXzmxCXs3aaKdZTMFEEGrbDyeebXg/MPbpFupStAdrK+Ttxq13ve9wF49UGPgqvd7mT6+65LQBvErov47F7AdFoyYyZRL8jsg/aNOJ0FZEPe3QTRb3KIDSI8wocpUx6lvUoGkZMqayJHw15kjILsuNNNxPaif+YIF0J8wfoeCvqRJaXQaNSLlTqYQYqSZgrrkDZCQCRKPsmAM9J2+BTGSWc5BnioGAAbdOt/CWiD2P86Gtgeep1VmfdlJOxRnyRJk/PlZk0e79fsvbaBHfwBHWe2bhZlIssZE0wafiQA0dwd3og2x9LGsYgpYwAtUOVzPPysB3/rBrpNqJFGBYW63kpAQl8lylFBvWD94B703zcM4ReRmrtv+SVfR2mPgt5oDBkliYX9EmU9k259LwFtEPteRYPbwQAK5xZnoii0N7GvpDYOIs7cTsbkUSYgVdBwcE9qmBprOO+vJVC2UraTjVQ8DYYw50CXOBJyixf7f92GR2MC0dxUXIKoS21vrpvaqaKmMlGLSwb7wIRyG7aWQVnJw/UdZExXbAAIlbuSehuFHQwCGcI4ZM922GQ1yONRnKYGeYi676clAdICxSIBYKYaEke2qUqkj2HTdAksHHuW3FrPIxQ3XJPrHoiMP9r0gXrLhWQaNc0w9LwY3EFCTd7OClX71dGP4uQdCwdtrkaCwasYxRqOyiPRZAsIRxv7BWTOKg7u6N3s6S+zliEr2YAUMEbVNZoB2LxwYwd5zkV7v7anHdYXO5IEtEE8ktj0j1QkwLo/8gLOhut4VYA52n5dzSNYNP5wty7vL1ckBYzMOrMZhqAVAHGzknLKJztBSZbUSjWYAOMzanItmpNxH0G6u9+Y3Uu+v7i3JmED1yTjR5tGT5doRZvpGkDiLSnRu1dxf9uc97S/5hBKWJTtl1AjWwqjJEgt04h68jqqMmJkxedQDz2f9njP+vW1QTzrd0CXx+9EddqCPyWXgnsA2Fb39laxx/beWkjWUygi50w74I01bA+2i/Lp44I82uN+lNqAQKAhkYAhNy+MA2cWbnaPGif0kOxjLzGJAo/2BpHd4r7afsUvK7mADfFnAZt20BtBvNcT0NlOCXi2MPqKtzCjIWG/RxZnx220o0GXw1npvzaIZ0XTpzRO1qQtjPnl6kwAKCtOeIlqHSkCtWYtA8SUVbc8SsKsqs3Jaifv8VG1Wg0F3WX5aN0hH64bkgO1llpRN8G5gSs77pJxxJzpbfeq0TOdjPllJu6DhwouSUXXtFx3gj7MkKWUW1Lwqga5VaE3lv88SrlkPYdUIwQqVJxeygr5TzIBJIRYxC8e1fqVQRbWkPR9sO/YIVHCMA+DCSCjUeCBTgRlJmzZ4T+V8dJgZEoO+WDFLZ9toCA6R6ixwbSKrES4vVWVjzYMeZDwAOJO0bpAUDMIN786VZOQ6ep6dunTemGN4ijAuififjtsqurdU0VZyyFLCUM2Mg0bBH5QQ6fFSkM2M3VZyRgImaovRqjdEbMmU9CdCWN4VMjAp/Wh/+6NBLRB7I2cz/RV3ODIG/PX5NXRpIz4gOOm2Ihuc3erIb99WJTPV7JAuxnMvcSNrFP+9Zc+ub3tEuCXK3u7nFjPRcryxkQeWJi9H7sLegu5LZkwkmANUd8HY23+alrk/kZBVsDLZanA3SjeE708LIkEqK92TdkFvJ5qqJT9c2LPNW6WZMJbRP3oYC7ieinnfrqW2g5xP/VY92UgJRAPuuU7F/1yJ+0GgHeTV7HdQDiVEDj8q22PmKAMiAXLcgE0ThH/YNy29GjvIFP210uWfIr90CQwMFVCbpQLmS1mUWpxZRK0VXGj68X4B+mCsr406ZO9DZfkANKukjxKvfG41ZxXjERNAv6KjIcN8Q1I6JB6e7ydldvAc11L+7GIUd1FbdI8TQCucCqGYvwQjaN6NOAgHejPeyeBwZhZeicPfaUuSSDoJUGvTy6P12UZkGXrCEOprJ1pQHbyhnyMCXkSmar1hiXXJhGKwn6a6r5Wl4Z06GnpzRLm6/2HZfnNg4YNSadiTHhSTqEBT0Nem6lDXk5wVJ7eYxoATcPMiE8m0w2Uw1iSqajpjeNIoVThMbzj0C7h3OBphht2HWU/24gKsmNZa3hv20J42ymoImnL8MSxtprP3UBGdU3GATbvQ5hbm8OWZAbj/fSetMGQj+7lCUnA6UT4zeeQb01mwHkIY5ELI7FEzWOiIdnNOeXffgnIrHpRAmB9WECiiReUS/24AidW6XamIr+5k5V/WPbK7X0fSkfUp0YDWKUj/qq8M1eRC/A0BDRWp9UYNg0gQWQulJF0wYlaQ7JkNCm22vWJi5kUwo5fbGPs9YK4GhWZgNvkRgpmPxpF6o3G8KvVHJKC4BUDZKATBg83wqNBoyrnQhWJeglqoEkQ290j/fb96T1p/SYJ3Z+uSoAToAEYq2szPtkB0fBHmCQTSGNXYcFgx7gNlSo65B8eesBeX5O/uFaSC+PevgufMqnk7kZe3lsqyq8embKc9IA/UX2rnmZzMlCUb00gPDyOzNxT9A5bNwSxU+fHfJLD2PaQMJPGNrDqtiAXMxmAtt9JeKXSqMlNR9HGZO3H8OnKTlbu0jNM+SUJ77beIb9jxJ2XGZ8lYyFmBGtj2Lp/BuldG8RB0taA99XOOA0Zcm2iJt+dK8t7j92yZYFGR2Fc9DaYefoo6ZYSDIzhKst3UMpwFecai3hQzqHugSlcruNDWFqRKzfkIUpE/mmpIe89cMrdfS/6qj4xcgikmrw87pC3zztBnQWaJqD9nHZj6UwULMsz4aodBq6ASzGH8golvaHzFjzKnSIMzD49+oqcq1QQ/q7b9ZXMZj3NxtIKZpMygYZ7hgyT7oGXsxNjSL1hi1tmIg5ZHHNiEWPACz59vZ2mXAf12q5/iTaondf9HjwJcAL0AMFj3CzIg6TLDoWq8gFytDSMBXgcD/fB0l4siYEJlmwCZK7n3NrrECoL7iuw1Ml8Ve7vWPLvvnLJbx4ZMIxeeIadTYqEu5yP1eVHl93yk6umBLkHdcoGo3WHUa5O7N+6EbLes0OnrA1VN2Y0nqWqExmbTikVET7FzlwYRpbDYwC21+PkfcSi+yzSfgn+8An2qJfTHtkvezoKk1I+pOMa8zfk5rQhV6e84JrsH7219Kff1SSgPUQ1OemjTlACBDtenArKO/MFFKxb8uWuv6OwIsNwubITiTZIiUf47h4SPt6ZL8q1cVDtgFmgl62E5JmlrYL8dtUhv1vzAIOV3ICcbNWNBftrI5uAlPenFwry5oxbAl5/z417O7kFfIZMj4hcyBVQSgFvsdQZcg49/BIiAo+BZFPAxfYRdz2PshKSSAd9Zk+NYhlhdyLQLKPofhUJXrvIALZLYjpMg6F3GERJzPVYXqaxMPO4ezuOdjrT33cmAW0QO5OXPvoEJMBwUtjvkjcXLOwHMhvRgSJu9f1EdoEr/ATCcHmEuVIleGgoCXiURMhqEll+oapNcOvt0kqdVEDJbEl2kOizjDKSz1cc8tmWC+E2FyZ89TrDlihpOseDNXl9xpK3FhzwEhlabH3bP+9NvTnk0rglFjipygkU4QOCTnU/kSPBWkZyVUMs6KsAyqgsLOMMjNF4pIFEFEv8Hic8rO5MS9QbWSuyCPnuA0D+0Y4DCDRO/N2sM6QX20mjiqJeJNFEqnJ+BGFlP5OF+lBxnQzqjB/rQMin0/vgjItMD/8kJfApUGj++rO6vLeM8goYRSalHKXRgIyHRV6ddcgPF/JyfQJgAFFTPAAUJ1wcOQSPOlnxCSENVRUTKlFm8kgKuru6B6/QLR9sRWUZXiEN4VEap08vPIy3z1Xkv3vFkhuzwb5IpGk3lof7Ih+tYc80ATQaGMUjqg06AaqLrxkqvhguyiTgzqIg03UwcInvCDR+dL01bL0RKYfZogWgxi+v74K1wm8DdROb9KhYD9Sb4arL1XhZXp+qytxYEFnPnYXI28lYf997CWiD2HuZ6ys+JYEMElGWwGzxrz4R+f1jGEUU7R+1se4b21IS89VkJgpvcaQhlwO7chGJDnOwlgG/z55gOz1/oVSR3XRR7m+V5S6g15YyQVnbtySB/bBsGUk+R/AKW33wYFJ9ayYrf3zVJT+86gdEmxt7Upxu+7vlkYiyg7TT9x81UWmOYxRpR0zU7/mxMBjxAzLOX5dwfRteowHouDDq+cinqZ6p25JcAQjq+9mibKXKslf22+S++yirIIUTWSuIPnNUd8AEUP18ICs3Ed6+Ou3HooYQba0r6/dBlUB3YhODKg3d755LIISsykujDvmjS1zDIzvzEYyMvQfXeVdIisFXClBbQAyTtWRN7oHsdmrLAaBqJ9L9GzA4nHirYlYTwiJqAxNZa9uIwZI6NijLILstiSmFugmDBwYHeBK7aadsIMN1LeMSkFbAKwImqSLzwUEjiZmWXB4ty08uO+W1OQ9CbobtMR10fD99jq7KJIDHryPLlwk3j0FrRczWo3j42M6z91xzZZdkcY5Evi6+ukdiBVBQYdHBbWHTgKePOsZqPoF9OkdTb08EYnuAuHDDiUxWF2oHXT57PzCLUGwq54L+DMkAbSYP775kZ5AeT5JBN7Jkgb5zfQILrbhnYBB4jjfqs/FrbRDPhp77dpQMh9Gre/tcwzaIOXgetzYdgDnjJHm0bnPVD2J6hMiQMOGIiWOLkFoOGcEEPhKsS8xjSQgbYFHw/QVgMFvbPoTsqsDK5es+ydbDksSkvA2klX0Y2EKFxfU+26OoMy/yqDFCDIlYl34DKDRjFfmTSxV5+2JYJqPf9ONoo+7tr6g3E0bxMrxwysKC7DYyDsipWR5zlN5QpExsKaH4XxojsorFiAeYqCEAAwSB3GM0ymIldnG/AJSB2HZPGsPZzBitO31Sw8dVw5QM9J+vuMGt+YTQFyfn+fk6aqPf7nVWm8Zw1AKkXcgusTjq+fTv+k8COmTafzo5kz3iKj+Zh0e3U5O//tIln4IqaSt1vAnsaUHaez6YZ7mf6HbWxVUv2cDL3Fv8umG2bO03VVkY0ADlD7JFuc90UhzF3BfzwRh+azIrP77kkB9cDUgMxfeGKi/W153tjz9ojLKlqqylGvI5EovW0ijchzE6qcbFCiPIVJMThf2NahGhSdJRUaPfNHr3Deis4XRLw+G2E32Y1Xqchcs3Z28GEbhneM6fkeuTThhDPzJjDfTr2X48/Rv99+BJQHuIg6ezoewxJzhm6d2YgoeA0FbEKMkHD8qyWQhIuXb825SegR1StaVHI9jb8gxelpP6GLJJX5uy4BG7ESY1ZBTF989P7nYXB+R/NE6sl5xD/SSBXYwGShn2qpJtBDuu53vRkGnQkIz6JJMVm40OuPlUJl8vakeMKrzoVK3PaPOYTTobglc44rbDpCHEjAdZb62x6fdnJXD8mebZ8+l/aQkcWQLMKAz7nPL9C3UJOVAEXikgi9MD3FOnzTjAFf8gNk6odABHaAynLfmvrtXkBiDs4sFvwn6DOK5Wn6m3kOmQqx4Ek8sAYC+XZK1sAvfUsNlKBlRtMHjUG/FJ4RmitOLliapMjwZQGqKnzZbuh+1dh0yHTaNDMp4iUgB3M1X5YLkgf7fksYvwub90UiGwXooJkTXgW4r8sytZefd8Q+bHQ+LHPtiwhduomzL2YJMoLl3ayssdgJpv5E3bwxtEvXlh90Z9LLrP2XWGk9iEdgOkXmeT9vLp6e219FKnt/LWV1OUgM8DuieUTrx13pQw2MfnYyXAa3ntPSrUxPd9484SIb2mg0DQmajLty8E5NUJL0KLDhv4maHGYWvc1iNv5SiQZ5gx7IfeRoEEvpH3SLIIyDZkAA9CI2uFDdQdEbk44bcRaKKIXPQDruwgyG+Q+6gN4iBrb8j77kGccR5V26OBkizELBRsC4h2UVy9V0fihgFvxKFEWNtrMTH7MuQFviVCpK8C1eV7Cw353hVkup4RWC8mCE3EfBIEY3zcX5MQMkUfs24z38D+MMpVmKTUh3FUrMHsUpyQp2qzVlwcdcrFybOjt14/J/14PR0y7Uet6D49IwFmMhJAO1dxyv31pHz8uCLvbcVkFcwSGcC21ci8gAn2NOdYOnwMpRnYc5oHjNcrUzX53lwJoAAGEHQ8KBU4OuLKM8IYoH/UbWSfZinF6nZKHu3XZLUUs2m86C0C0rsv9EbPlh7tZNgBcl/yGZYR4jbskgpPn3JuDtBtMFBd1QZxoNSlO5vKAUM0U5PljCn31rNyZ7smDzNh2c0j8QY1cL1uDHwye3QUe4QLyLS8hNDupQnDNoTzEXhHyMAk+8FZbixlyeVLNuZsuuKVFWD0bedQnlEL2VyJR603PY5MW3qLoMZxBKHduFmSaZAxj4VcEvXU7LC2pnA6joQH87faIA6m3s58r+k1Pt5Kym0YxC/3I8DUFLDUVyVTqCO70YP9KpeNJHPSXqPtTWA2ZVjU76pIyAD9FCrHL4y75MZEQ14eLclUzJCQn6wHZ15NfyAAAmyvb+/bBnHXigFRCDorNjkJLUE4FbUbnYCF/8EFDvmAXjzDogi2ixdZzKSfInbqZKguEwjvUo9+ADXodnYloA3i2dX9wI+8CnQSTp4Mv+0C2uY+Mhs/eVyWe/kRQKyZKPRnQT2RVAjuTOvUtFC2kTwkxGofhf81j269k7Ov6Q36PAitRUUWQwm5EU3KyxfGgbkZQKG2xw6ZMnSqa9QOvr1q0BtLaKi7vVTepmFaTdUlVY8BYs1jEy2zzL6pJyqCjIloh+isdTVbZ/yJ/YH9K/tv6sSLCn9UTQAndUdGjYxcnB2XWCQgJsooXEikoc6OCiTeur5+H2wJaIM42PrTvYcEaPBKqLpPF6qSgMeRsnyAWwMmJvC7tvZzAAyvguLHkFwjAqxMt425WUYJBwv1X+SN0Pvji+USfsDKheEFRl1ZTKYNmQDE2ni0WUMYB11RDAACIxEfJlWgljyNeqM101YC1FsZSsiDhSIHkHf4bZLHnnCmADDuZAY4sg0p1sBe7wlJBWDcXPgwvEqdPZ+UQwPIyLTtAdrJMcjybZTEA6CAIOojo/AG4wBFDYCL05SimE5LIgGfeGAMjwIc3nZw+oCBlIA2iAOpNt3pdhKwUA+XBaDp9hODuAeDmKVBBBcemRnIUFHBiygoTzdOrITJpDHkC5yvtkGMuXLIGq3LGBJkRiN+TKQaqeRpuZ3U38SSJUuFbRBLdSnWYRCNsM1OAbtpM1S80CBCcTSGrRdrCA3bIObtwnpSSkWCPjHAtai9wJPS1vCdRxvE4dOpHpGWgJaAloCWwBEkgMi6bloCWgJaAloCWgJaAtog6ntAS0BLQEtAS0BLABLQBlHfBloCWgJaAloCWgKQgDaI+jbQEtAS0BLQEtASgAS0QdS3gZaAloCWgJaAlgAkoA2ivg20BLQEtAS0BLQEIAFtEPVtoCWgJaAloCWgJQAJaIOobwMtAS0BLQEtAS0BSEAbRH0baAloCWgJaAloCUAC2iDq20BLQEtAS0BLQEsAEtAGUd8GWgJaAloCWgJaApCANoj6NtAS0BLQEtAS0BKABLRB1LeBloCWgJaAloCWACSgDaK+DbQEtAS0BLQEtAQgAW0Q9W2gJaAloCWgJaAlAAlog6hvAy0BLQEtAS0BLQFI4P8HmvWhX0FAg4gAAAAASUVORK5CYII=;" vertex="1" parent="1">
                    <mxGeometry x="127.91" y="390.87" width="69.18" height="49.13" as="geometry"/>
                </mxCell>
                <mxCell id="26" value="IDプロバイダ" style="text;strokeColor=none;align=center;fillColor=none;html=1;verticalAlign=middle;whiteSpace=wrap;rounded=0;" vertex="1" parent="1">
                    <mxGeometry x="117.5" y="440" width="90" height="30" as="geometry"/>
                </mxCell>
                <mxCell id="28" value="" style="edgeStyle=orthogonalEdgeStyle;html=1;endArrow=block;elbow=vertical;startArrow=none;endFill=1;strokeColor=#545B64;rounded=0;exitX=0.5;exitY=1;exitDx=0;exitDy=0;entryX=0.25;entryY=0;entryDx=0;entryDy=0;" edge="1" parent="1" source="14" target="23">
                    <mxGeometry width="100" relative="1" as="geometry">
                        <mxPoint x="140" y="210" as="sourcePoint"/>
                        <mxPoint x="240" y="210" as="targetPoint"/>
                        <Array as="points">
                            <mxPoint x="120" y="190"/>
                        </Array>
                    </mxGeometry>
                </mxCell>
                <mxCell id="29" value="" style="edgeStyle=orthogonalEdgeStyle;html=1;endArrow=none;elbow=vertical;startArrow=block;startFill=1;strokeColor=#545B64;rounded=0;entryX=0.715;entryY=-0.007;entryDx=0;entryDy=0;entryPerimeter=0;" edge="1" parent="1" target="23">
                    <mxGeometry width="100" relative="1" as="geometry">
                        <mxPoint x="199.59" y="190" as="sourcePoint"/>
                        <mxPoint x="299.59000000000003" y="190" as="targetPoint"/>
                    </mxGeometry>
                </mxCell>
                <mxCell id="31" value="" style="sketch=0;outlineConnect=0;fontColor=#232F3E;gradientColor=none;fillColor=#BF0816;strokeColor=none;dashed=0;verticalLabelPosition=bottom;verticalAlign=top;align=center;html=1;fontSize=12;fontStyle=0;aspect=fixed;pointerEvents=1;shape=mxgraph.aws4.role;" vertex="1" parent="1">
                    <mxGeometry x="470" y="248" width="64.45" height="36.36" as="geometry"/>
                </mxCell>
                <mxCell id="38" value="⑦アクセストークン,IDトークンを返す" style="text;strokeColor=none;align=center;fillColor=none;html=1;verticalAlign=middle;whiteSpace=wrap;rounded=0;" vertex="1" parent="1">
                    <mxGeometry x="230" y="320" width="130" height="30" as="geometry"/>
                </mxCell>
                <mxCell id="39" value="⑥認可コードの送信" style="text;strokeColor=none;align=center;fillColor=none;html=1;verticalAlign=middle;whiteSpace=wrap;rounded=0;" vertex="1" parent="1">
                    <mxGeometry x="300" y="415" width="170" height="20" as="geometry"/>
                </mxCell>
                <mxCell id="40" value="" style="endArrow=classic;html=1;exitX=1.009;exitY=0.333;exitDx=0;exitDy=0;exitPerimeter=0;" edge="1" parent="1" source="23">
                    <mxGeometry width="50" height="50" relative="1" as="geometry">
                        <mxPoint x="250" y="410" as="sourcePoint"/>
                        <mxPoint x="460" y="270" as="targetPoint"/>
                    </mxGeometry>
                </mxCell>
                <mxCell id="41" value="" style="endArrow=classic;html=1;entryX=0.991;entryY=0.713;entryDx=0;entryDy=0;entryPerimeter=0;" edge="1" parent="1" target="23">
                    <mxGeometry width="50" height="50" relative="1" as="geometry">
                        <mxPoint x="500" y="300" as="sourcePoint"/>
                        <mxPoint x="250" y="440" as="targetPoint"/>
                        <Array as="points"/>
                    </mxGeometry>
                </mxCell>
                <mxCell id="44" value="③ID,PW等で&lt;br&gt;認証実施" style="text;strokeColor=none;align=center;fillColor=none;html=1;verticalAlign=middle;whiteSpace=wrap;rounded=0;" vertex="1" parent="1">
                    <mxGeometry x="22.5" y="265" width="95" height="30" as="geometry"/>
                </mxCell>
                <mxCell id="45" value="" style="endArrow=classic;html=1;startArrow=none;" edge="1" parent="1" source="51">
                    <mxGeometry width="50" height="50" relative="1" as="geometry">
                        <mxPoint x="247.5" y="60" as="sourcePoint"/>
                        <mxPoint x="500" y="130" as="targetPoint"/>
                    </mxGeometry>
                </mxCell>
                <mxCell id="46" value="" style="endArrow=classic;html=1;startArrow=none;" edge="1" parent="1" source="52">
                    <mxGeometry width="50" height="50" relative="1" as="geometry">
                        <mxPoint x="497.5" y="170" as="sourcePoint"/>
                        <mxPoint x="247.5" y="100" as="targetPoint"/>
                        <Array as="points"/>
                    </mxGeometry>
                </mxCell>
                <mxCell id="49" value="" style="endArrow=classic;html=1;startArrow=none;" edge="1" parent="1" source="57">
                    <mxGeometry width="50" height="50" relative="1" as="geometry">
                        <mxPoint x="247.5" y="150" as="sourcePoint"/>
                        <mxPoint x="500" y="220" as="targetPoint"/>
                    </mxGeometry>
                </mxCell>
                <mxCell id="54" value="" style="endArrow=none;html=1;" edge="1" parent="1" target="52">
                    <mxGeometry width="50" height="50" relative="1" as="geometry">
                        <mxPoint x="497.5" y="170" as="sourcePoint"/>
                        <mxPoint x="247.5" y="100" as="targetPoint"/>
                        <Array as="points"/>
                    </mxGeometry>
                </mxCell>
                <mxCell id="52" value="②アクセスをIDPへリダイレクト" style="text;strokeColor=none;align=center;fillColor=none;html=1;verticalAlign=middle;whiteSpace=wrap;rounded=0;" vertex="1" parent="1">
                    <mxGeometry x="330" y="125" width="110" height="30" as="geometry"/>
                </mxCell>
                <mxCell id="55" value="" style="endArrow=none;html=1;" edge="1" parent="1" target="51">
                    <mxGeometry width="50" height="50" relative="1" as="geometry">
                        <mxPoint x="247.5" y="60" as="sourcePoint"/>
                        <mxPoint x="500" y="130" as="targetPoint"/>
                    </mxGeometry>
                </mxCell>
                <mxCell id="51" value="①ログイン試行" style="text;strokeColor=none;align=center;fillColor=none;html=1;verticalAlign=middle;whiteSpace=wrap;rounded=0;" vertex="1" parent="1">
                    <mxGeometry x="290" y="70" width="95" height="30" as="geometry"/>
                </mxCell>
                <mxCell id="56" value="④認証トークンを発行" style="text;html=1;align=center;verticalAlign=middle;resizable=0;points=[];autosize=1;strokeColor=none;fillColor=none;" vertex="1" parent="1">
                    <mxGeometry x="197.09" y="270" width="140" height="30" as="geometry"/>
                </mxCell>
                <mxCell id="58" value="" style="endArrow=none;html=1;" edge="1" parent="1" target="57">
                    <mxGeometry width="50" height="50" relative="1" as="geometry">
                        <mxPoint x="247.5" y="150" as="sourcePoint"/>
                        <mxPoint x="500" y="220" as="targetPoint"/>
                    </mxGeometry>
                </mxCell>
                <mxCell id="57" value="⑤トークンの送信" style="text;strokeColor=none;align=center;fillColor=none;html=1;verticalAlign=middle;whiteSpace=wrap;rounded=0;" vertex="1" parent="1">
                    <mxGeometry x="320" y="170" width="110" height="30" as="geometry"/>
                </mxCell>
                <mxCell id="60" value="" style="endArrow=classic;html=1;entryX=1;entryY=1;entryDx=0;entryDy=0;" edge="1" parent="1" target="14">
                    <mxGeometry width="50" height="50" relative="1" as="geometry">
                        <mxPoint x="450" y="240" as="sourcePoint"/>
                        <mxPoint x="387.09000000000003" y="210" as="targetPoint"/>
                    </mxGeometry>
                </mxCell>
                <mxCell id="61" value="⑧ログイン完了,サービスの提供" style="text;strokeColor=none;align=center;fillColor=none;html=1;verticalAlign=middle;whiteSpace=wrap;rounded=0;" vertex="1" parent="1">
                    <mxGeometry x="247.5" y="220" width="137.5" height="32" as="geometry"/>
                </mxCell>
            </root>
        </mxGraphModel>
    </diagram>
</mxfile>